<svg version="1.1" xmlns="http://www.w3.org/2000/svg" xmlns:xlink="http://www.w3.org/1999/xlink" width="115.43332" height="31.26011" viewBox="0,0,115.43332,31.26011"><g transform="translate(-358.03106,-279.83414)"><g data-paper-data="{&quot;isPaintingLayer&quot;:true}" fill-rule="nonzero" stroke-linejoin="miter" stroke-miterlimit="10" stroke-dasharray="" stroke-dashoffset="0" style="mix-blend-mode: normal"><path d="M415.20833,300.35148v9.33333l-2.1886,-1.47417" fill="none" stroke="#ffffff" stroke-width="1.5" stroke-linecap="round"/><path d="M415.38337,310.02882l2.72727,-2" fill="none" stroke="#ffffff" stroke-width="1.5" stroke-linecap="round"/><path d="M364.76774,303.62417c-6.01417,-0.11252 -5.98667,-1.01357 -5.98667,-4.86037c0,-5.14756 0,-12.92545 0,-15.45178c0,-1.33088 0.27739,-2.72788 3.67951,-2.72788c12.42387,0 90.07923,0 107.39419,0c2.21419,0 2.85962,1.21036 2.85962,2.72788c0,2.85461 0,10.82344 0,15.61941c0,4.22338 -0.43175,4.55564 -3.0424,4.69274c-3.15056,0.16545 -98.17761,0.12585 -104.90426,0z" fill-opacity="0.61176" fill="#000000" stroke="#ffffff" stroke-width="1.5" stroke-linecap="butt"/><text transform="translate(361.80833,295.99561) scale(0.27554,0.27554)" font-size="40" xml:space="preserve" fill="#ffffff" fill-rule="nonzero" stroke="none" stroke-width="1" stroke-linecap="butt" stroke-linejoin="miter" stroke-miterlimit="10" stroke-dasharray="" stroke-dashoffset="0" font-family="Sans Serif" font-weight="normal" text-anchor="start" style="mix-blend-mode: normal"><tspan x="0" dy="0">Find the Minigames!</tspan></text></g></g></svg>