<svg version="1.1" xmlns="http://www.w3.org/2000/svg" xmlns:xlink="http://www.w3.org/1999/xlink" width="30.25026" height="35.69264" viewBox="0,0,30.25026,35.69264"><defs><radialGradient cx="236.75561" cy="171.67993" r="2.92901" gradientUnits="userSpaceOnUse" id="color-1"><stop offset="0" stop-color="#ffb8b8"/><stop offset="1" stop-color="#ff0000"/></radialGradient></defs><g transform="translate(-224.87487,-164.39031)"><g data-paper-data="{&quot;isPaintingLayer&quot;:true}" fill-rule="nonzero" stroke-linejoin="miter" stroke-miterlimit="10" stroke-dasharray="" stroke-dashoffset="0" style="mix-blend-mode: normal"><path d="M225.37487,179.51544c0,-8.07723 6.5479,-14.62513 14.62513,-14.62513c8.07723,0 14.62513,6.5479 14.62513,14.62513c0,8.07723 -6.5479,14.62513 -14.62513,14.62513c-8.07723,0 -14.62513,-6.5479 -14.62513,-14.62513z" fill="#9966ff" stroke="#ffffff" stroke-width="1" stroke-linecap="butt"/><g><g stroke="#000000" stroke-width="0" stroke-linecap="round"><path d="M229.49199,184.46443l9.49367,-2.27152l4.13527,2.15501l-10.25081,2.97042z" fill="#77ffd0"/><path d="M232.92826,187.31827l-0.05824,2.03852l-3.40052,-3.05877l0.03134,-1.81723z" fill="#438f75"/><path d="M232.9239,187.27303l10.19693,-2.92518l0.00001,1.6618l-10.25517,3.30625z" fill="#59bd9a"/></g><g stroke="#000000" stroke-width="0" stroke-linecap="round"><path d="M240.84133,175.37212l5.96353,-1.36853l4.18721,1.47967l-6.77264,1.96356z" fill="#c9ff78"/><path d="M244.27758,177.44672l-0.05824,2.03852l-3.40051,-2.33151l0.03134,-1.81723z" fill="#728f43"/><path d="M244.27323,177.4015l6.69716,-1.9132v1.74025l-6.7554,2.21581z" fill="#97bd59"/></g><path d="M231.49755,184.91702c0,0 -0.07946,-6.0411 2.87874,-9.7244" fill="none" stroke="#ffffff" stroke-width="0.5" stroke-linecap="round"/><path d="M233.82661,171.67993c0,-1.61762 1.31135,-2.92897 2.92897,-2.92897c1.61762,0 2.92901,1.31135 2.92901,2.92897c0,1.61762 -1.31135,2.92897 -2.92901,2.92897c-1.61762,0 -2.92897,-1.31135 -2.92897,-2.92897z" fill="url(#color-1)" stroke="none" stroke-width="0" stroke-linecap="butt"/><path d="M238.58101,184.02922c0,0.31764 -0.72958,0.57517 -1.62957,0.57517c-0.89999,0 -1.62957,-0.25751 -1.62957,-0.57517c0,-0.31764 0.72958,-0.57517 1.62957,-0.57517c0.89999,0 1.62957,0.25749 1.62957,0.57517z" fill-opacity="0.59608" fill="#000000" stroke="none" stroke-width="0" stroke-linecap="butt"/></g><path d="M244.80747,194.02572c0,2.71347 -2.15236,4.91317 -4.80744,4.91317c-2.65507,0 -4.80744,-2.1997 -4.80744,-4.91317c0,-2.71347 2.15237,-4.91317 4.80744,-4.91317c2.65507,0 4.80744,2.1997 4.80744,4.91317z" fill="#9966ff" stroke="#ffffff" stroke-width="1" stroke-linecap="butt"/><text transform="translate(237.30547,197.22288) scale(0.22881,0.22881)" font-size="40" xml:space="preserve" fill="#ffffff" fill-rule="nonzero" stroke="none" stroke-width="1" stroke-linecap="butt" stroke-linejoin="miter" stroke-miterlimit="10" stroke-dasharray="" stroke-dashoffset="0" font-family="Sans Serif" font-weight="normal" text-anchor="start" style="mix-blend-mode: normal"><tspan x="0" dy="0">3</tspan></text></g></g></svg>