<svg version="1.1" xmlns="http://www.w3.org/2000/svg" xmlns:xlink="http://www.w3.org/1999/xlink" width="39.27768" height="61.67716" viewBox="0,0,39.27768,61.67716"><g transform="translate(-221.86116,-150.66143)"><g data-paper-data="{&quot;isPaintingLayer&quot;:true}" fill="#ff0000" fill-rule="nonzero" stroke="#000000" stroke-width="3.5" stroke-linecap="butt" stroke-linejoin="round" stroke-miterlimit="2" stroke-dasharray="" stroke-dashoffset="0" style="mix-blend-mode: normal"><path d="M241.65342,171.41106h0.36821c1.10463,-0.14729 2.45473,-0.95735 2.45473,-2.43018c0,-1.54648 -1.59557,-2.50383 -2.8843,-2.50383c-1.3501,0 -2.94567,0.95735 -2.94567,2.50383c0,1.54648 1.65694,2.43018 3.00704,2.43018zM254.72485,177.81791c3.12978,3.75574 4.66399,8.2479 4.66399,13.47648c0,5.30222 -1.65694,9.94167 -4.90946,13.69741c-3.31389,3.6821 -7.79377,5.59679 -12.9487,5.59679c-5.15493,0 -9.63481,-1.91469 -12.9487,-5.59679c-3.25252,-3.75574 -4.97082,-8.39518 -4.97082,-13.69741c0,-5.22858 1.65695,-9.72074 4.72535,-13.47648c-1.47284,-2.72475 -2.27062,-5.67043 -2.27062,-8.83704c0,-4.5658 1.47283,-8.54246 4.2344,-11.70907c3.00705,-3.16661 6.87324,-4.86037 11.23039,-4.86037c4.41852,0 8.22334,1.69376 11.23039,4.86037c2.82294,3.24024 4.2344,7.14327 4.2344,11.70907c0,3.24024 -0.79778,6.25957 -2.27062,8.83704zM247.17656,190.48433c0,-1.62013 -0.55232,-3.01932 -1.71831,-4.34488c-1.04326,-1.10463 -2.14789,-1.69376 -3.43662,-1.7674l-0.12273,0.07364h-0.49095c-2.94567,0 -5.52314,2.72476 -5.52314,6.11229c0,3.38753 2.57746,6.03864 5.58451,6.03864c2.94567,0 5.70725,-2.65111 5.70725,-6.11228z"/></g></g></svg>