<svg version="1.1" xmlns="http://www.w3.org/2000/svg" xmlns:xlink="http://www.w3.org/1999/xlink" width="41.91652" height="61.45622" viewBox="0,0,41.91652,61.45622"><g transform="translate(-219.04174,-149.27189)"><g data-paper-data="{&quot;isPaintingLayer&quot;:true}" fill="#ff0000" fill-rule="nonzero" stroke="#000000" stroke-width="3.5" stroke-linecap="butt" stroke-linejoin="round" stroke-miterlimit="2" stroke-dasharray="" stroke-dashoffset="0" style="mix-blend-mode: normal"><path d="M246.56639,188.13744c0,-1.91469 -0.67505,-3.46117 -2.08652,-4.86037c-1.3501,-1.32556 -2.27062,-2.13562 -4.60262,-2.13562c-2.332,0 -4.11168,0.29457 -5.09357,0.73642c-0.98189,0.44185 -2.63883,1.62013 -4.66398,3.53482l-0.61368,0.58913l-6.75051,-4.12395l2.63884,-30.85598h29.88634v14.06562h-19.26963l-0.30684,2.65111c1.41147,-0.36821 2.332,-0.36821 4.35715,-0.36821c5.09357,0 9.75755,2.06197 13.62375,6.11228c3.62073,4.05031 5.52314,8.98432 5.52314,14.58111c0,5.81771 -1.84104,10.82537 -5.46177,14.80203c-3.8662,4.05031 -8.71429,6.11228 -14.2988,6.11228c-4.17304,0 -7.97787,-1.17827 -11.35313,-3.60845c-3.12978,-2.43018 -5.40041,-5.52315 -6.81188,-9.35253l-0.49094,-1.32556l11.9668,-4.41851l0.49094,0.8837c1.41147,2.50383 3.37526,3.6821 6.1982,3.6821c3.55936,0 7.11871,-2.65111 7.11871,-6.70142z"/></g></g></svg>