<svg version="1.1" xmlns="http://www.w3.org/2000/svg" xmlns:xlink="http://www.w3.org/1999/xlink" width="41.67105" height="61.67715" viewBox="0,0,41.67105,61.67715"><g transform="translate(-219.16447,-149.16143)"><g data-paper-data="{&quot;isPaintingLayer&quot;:true}" fill="#ff0000" fill-rule="nonzero" stroke="#000000" stroke-width="3.5" stroke-linecap="butt" stroke-linejoin="round" stroke-miterlimit="2" stroke-dasharray="" stroke-dashoffset="0" style="mix-blend-mode: normal"><path d="M240.55231,180c-0.1841,0 -0.30684,0 -0.49095,0c-3.6821,0 -6.81187,3.31389 -6.81187,7.51148c0,4.27123 3.19114,7.51148 6.87324,7.51148c3.62072,0 6.87325,-3.31389 6.87325,-7.51148c0,-4.05031 -3.06841,-7.29056 -6.44367,-7.51148zM237.72937,150.91143l14.72838,0.07364l-9.2666,17.01129c4.41852,0.81006 8.16198,2.87204 11.04628,6.33321c3.25252,3.97666 4.84809,8.68975 4.84809,14.13926c0,5.67043 -1.77968,10.60444 -5.27767,14.58111c-3.62072,3.97666 -8.34608,6.03864 -13.80786,6.03864c-5.46177,0 -10.18713,-2.06198 -13.74649,-6.03864c-3.49799,-3.97666 -5.33903,-8.91067 -5.33903,-14.58111c0,-3.53482 0.85915,-6.99599 2.20925,-10.01531c0.30684,-0.51549 0.67505,-1.47284 0.92052,-1.98833z"/></g></g></svg>