<svg version="1.1" xmlns="http://www.w3.org/2000/svg" xmlns:xlink="http://www.w3.org/1999/xlink" width="30.1268" height="36.35584" viewBox="0,0,30.1268,36.35584"><g transform="translate(-224.93662,-164.45216)"><g data-paper-data="{&quot;isPaintingLayer&quot;:true}" fill-rule="nonzero" stroke-linecap="butt" stroke-linejoin="miter" stroke-dasharray="" stroke-dashoffset="0" style="mix-blend-mode: normal"><path d="M225.43663,179.51556c0,-8.04314 6.52025,-14.5634 14.5634,-14.5634c8.04314,0 14.5634,6.52025 14.5634,14.5634c0,8.04314 -6.52025,14.5634 -14.5634,14.5634c-8.04314,0 -14.5634,-6.52025 -14.5634,-14.5634z" fill="#9966ff" stroke="#ffffff" stroke-width="1" stroke-miterlimit="10"/><path d="M240.90097,186.51516c-0.82354,0.00502 -2.75131,0.27903 -4.82517,-0.87229c-2.02751,-1.12558 -3.17025,-4.32869 -3.17025,-7.64222c0,-4.40817 2.6848,-7.4786 4.28939,-8.15266c0.87495,-0.36753 3.65471,-0.33221 3.65471,-0.33221c0,0 3.18952,16.77828 0.05132,16.99938z" fill="#d2af43" stroke="none" stroke-width="0" stroke-miterlimit="10"/><path d="M240.90097,186.51516c-0.82354,0.00502 -2.75131,0.27903 -4.82517,-0.87229c-2.02751,-1.12558 -3.17025,-4.32869 -3.17025,-7.64222c0,-4.40817 2.6848,-7.4786 4.28939,-8.15266c0.87495,-0.36753 3.65471,-0.33221 3.65471,-0.33221c0,0 3.18952,16.77828 0.05132,16.99938z" fill="#d2af43" stroke="none" stroke-width="0" stroke-miterlimit="10"/><path d="M240.90097,186.51516c-0.82354,0.00502 -2.75131,0.27903 -4.82517,-0.87229c-2.02751,-1.12558 -3.17025,-4.32869 -3.17025,-7.64222c0,-4.40817 2.6848,-7.4786 4.28939,-8.15266c0.87495,-0.36753 3.65471,-0.33221 3.65471,-0.33221c0,0 3.18952,16.77828 0.05132,16.99938z" fill="#d2af43" stroke="none" stroke-width="0" stroke-miterlimit="10"/><path d="M240.90097,186.51516c-0.82354,0.00502 -2.75131,0.27903 -4.82517,-0.87229c-2.02751,-1.12558 -3.17025,-4.32869 -3.17025,-7.64222c0,-4.40817 2.6848,-7.4786 4.28939,-8.15266c0.87495,-0.36753 3.65471,-0.33221 3.65471,-0.33221c0,0 3.18952,16.77828 0.05132,16.99938z" fill="#d2af43" stroke="none" stroke-width="0" stroke-miterlimit="10"/><path d="M240.90097,186.51516c-0.82354,0.00502 -2.75131,0.27903 -4.82517,-0.87229c-2.02751,-1.12558 -3.17025,-4.32869 -3.17025,-7.64222c0,-4.40817 2.6848,-7.4786 4.28939,-8.15266c0.87495,-0.36753 3.65471,-0.33221 3.65471,-0.33221c0,0 3.18952,16.77828 0.05132,16.99938z" fill="#d2af43" stroke="none" stroke-width="0" stroke-miterlimit="10"/><path d="M240.90097,186.51516c-0.82354,0.00502 -2.75131,0.27903 -4.82517,-0.87229c-2.02751,-1.12558 -3.17025,-4.32869 -3.17025,-7.64222c0,-4.40817 2.6848,-7.4786 4.28939,-8.15266c0.87495,-0.36753 3.65471,-0.33221 3.65471,-0.33221c0,0 3.18952,16.77828 0.05132,16.99938z" fill="#d2af43" stroke="none" stroke-width="0" stroke-miterlimit="10"/><path d="M240.90097,186.51516c-0.82354,0.00502 -2.75131,0.27903 -4.82517,-0.87229c-2.02751,-1.12558 -3.17025,-4.32869 -3.17025,-7.64222c0,-4.40817 2.6848,-7.4786 4.28939,-8.15266c0.87495,-0.36753 3.65471,-0.33221 3.65471,-0.33221c0,0 3.18952,16.77828 0.05132,16.99938z" fill="#d2af43" stroke="none" stroke-width="0" stroke-miterlimit="10"/><path d="M240.90097,186.51516c-0.82354,0.00502 -2.75131,0.27903 -4.82517,-0.87229c-2.02751,-1.12558 -3.17025,-4.32869 -3.17025,-7.64222c0,-4.40817 2.6848,-7.4786 4.28939,-8.15266c0.87495,-0.36753 3.65471,-0.33221 3.65471,-0.33221c0,0 3.18952,16.77828 0.05132,16.99938z" fill="#d2af43" stroke="none" stroke-width="0" stroke-miterlimit="10"/><path d="M240.90097,186.51516c-0.82354,0.00502 -2.75131,0.27903 -4.82517,-0.87229c-2.02751,-1.12558 -3.17025,-4.32869 -3.17025,-7.64222c0,-4.40817 2.6848,-7.4786 4.28939,-8.15266c0.87495,-0.36753 3.65471,-0.33221 3.65471,-0.33221c0,0 3.18952,16.77828 0.05132,16.99938z" fill="#bd941b" stroke="none" stroke-width="0" stroke-miterlimit="10"/><path d="M246.69601,178.03302c0,4.67976 -2.67916,8.47346 -5.98408,8.47346c-3.30491,0 -5.98407,-3.7937 -5.98407,-8.47346c0,-4.67976 2.67916,-8.47346 5.98407,-8.47346c3.30491,0 5.98408,3.79371 5.98408,8.47346z" fill="#fff756" stroke="none" stroke-width="0" stroke-miterlimit="10"/><path d="M246.69601,178.03302c0,4.67976 -2.67916,8.47346 -5.98408,8.47346c-3.30491,0 -5.98407,-3.7937 -5.98407,-8.47346c0,-4.67976 2.67916,-8.47346 5.98407,-8.47346c3.30491,0 5.98408,3.79371 5.98408,8.47346z" fill="#fff756" stroke="none" stroke-width="0" stroke-miterlimit="10"/><path d="M246.69601,178.03302c0,4.67976 -2.67916,8.47346 -5.98408,8.47346c-3.30491,0 -5.98407,-3.7937 -5.98407,-8.47346c0,-4.67976 2.67916,-8.47346 5.98407,-8.47346c3.30491,0 5.98408,3.79371 5.98408,8.47346z" fill="#fff756" stroke="none" stroke-width="0" stroke-miterlimit="10"/><path d="M246.69601,178.03302c0,4.67976 -2.67916,8.47346 -5.98408,8.47346c-3.30491,0 -5.98407,-3.7937 -5.98407,-8.47346c0,-4.67976 2.67916,-8.47346 5.98407,-8.47346c3.30491,0 5.98408,3.79371 5.98408,8.47346z" fill="#fff756" stroke="none" stroke-width="0" stroke-miterlimit="10"/><path d="M246.69601,178.03302c0,4.67976 -2.67916,8.47346 -5.98408,8.47346c-3.30491,0 -5.98407,-3.7937 -5.98407,-8.47346c0,-4.67976 2.67916,-8.47346 5.98407,-8.47346c3.30491,0 5.98408,3.79371 5.98408,8.47346z" fill="#fff756" stroke="none" stroke-width="0" stroke-miterlimit="10"/><path d="M246.69601,178.03302c0,4.67976 -2.67916,8.47346 -5.98408,8.47346c-3.30491,0 -5.98407,-3.7937 -5.98407,-8.47346c0,-4.67976 2.67916,-8.47346 5.98407,-8.47346c3.30491,0 5.98408,3.79371 5.98408,8.47346z" fill="#fff756" stroke="none" stroke-width="0" stroke-miterlimit="10"/><path d="M246.69601,178.03302c0,4.67976 -2.67916,8.47346 -5.98408,8.47346c-3.30491,0 -5.98407,-3.7937 -5.98407,-8.47346c0,-4.67976 2.67916,-8.47346 5.98407,-8.47346c3.30491,0 5.98408,3.79371 5.98408,8.47346z" fill="#fff756" stroke="none" stroke-width="0" stroke-miterlimit="10"/><path d="M246.69601,178.03302c0,4.67976 -2.67916,8.47346 -5.98408,8.47346c-3.30491,0 -5.98407,-3.7937 -5.98407,-8.47346c0,-4.67976 2.67916,-8.47346 5.98407,-8.47346c3.30491,0 5.98408,3.79371 5.98408,8.47346z" fill="#fff756" stroke="none" stroke-width="0" stroke-miterlimit="10"/><path d="M246.69601,178.03302c0,4.67976 -2.67916,8.47346 -5.98408,8.47346c-3.30491,0 -5.98407,-3.7937 -5.98407,-8.47346c0,-4.67976 2.67916,-8.47346 5.98407,-8.47346c3.30491,0 5.98408,3.79371 5.98408,8.47346z" fill="#fff53e" stroke="none" stroke-width="0" stroke-miterlimit="10"/><path d="M240.28957,184.19867c-0.31165,-0.11001 -0.7024,-0.37965 -0.89831,-0.61988c-0.04298,-0.05272 -0.08294,-0.09586 -0.08881,-0.09586c-0.04547,0 -0.39541,-0.55865 -0.56092,-0.8954c-0.20355,-0.41419 -0.20355,-0.41419 -0.28919,-0.34725c-0.17208,0.13449 -0.27337,-0.1755 -0.11645,-0.35632c0.07126,-0.08214 0.07128,-0.08214 -0.02227,-0.43714c-0.07088,-0.26904 -0.10852,-0.36732 -0.15542,-0.40583c-0.0791,-0.06496 -0.09774,-0.16232 -0.05738,-0.29963c0.02911,-0.0991 0.02831,-0.13428 -0.00903,-0.39209c-0.09784,-0.67571 -0.06855,-2.06218 0.05741,-2.71804c0.06734,-0.35074 0.12117,-0.59637 0.1385,-0.63225c0.01044,-0.02157 0.0199,-0.85919 0.02126,-1.88239c0.00137,-1.01394 0.00851,-1.89875 0.0159,-1.96627c0.01665,-0.15237 0.13543,-0.29192 0.21518,-0.25281c0.04647,0.02278 0.349,0.45205 0.40552,0.57538c0.01877,0.04094 0.22284,0.36648 0.552,0.88057c0.11533,0.18012 0.11533,0.18012 0.21119,0.10936c0.39681,-0.29282 0.62742,-0.37128 1.09116,-0.37128c0.45727,0 0.79095,0.11411 1.09413,0.37411c0.07792,0.06684 0.07792,0.06682 0.2305,-0.17201c0.08392,-0.13134 0.15727,-0.25035 0.16304,-0.26447c0.00577,-0.0141 0.08588,-0.14178 0.17809,-0.28371c0.0922,-0.14193 0.17234,-0.2704 0.17811,-0.28556c0.02021,-0.05312 0.30435,-0.48091 0.35319,-0.53172c0.06956,-0.0724 0.18115,-0.02135 0.2326,0.10639c0.04168,0.10346 0.04282,0.15528 0.04282,1.9436c0,1.8373 0,1.83729 0.05167,2.03645c0.17325,0.66772 0.24659,1.31054 0.24542,2.15089c-0.0009,0.62892 -0.01207,0.81967 -0.07434,1.26878c-0.0262,0.18892 -0.02538,0.20871 0.01064,0.25807c0.05952,0.08159 0.05095,0.2706 -0.01495,0.32924c-0.02967,0.0264 -0.06217,0.03808 -0.07221,0.02597c-0.01004,-0.01212 -0.0522,0.11004 -0.09369,0.27146c-0.04147,0.16144 -0.0889,0.33115 -0.10541,0.37715c-0.02787,0.07775 -0.0245,0.08966 0.04811,0.16894c0.0959,0.10473 0.12105,0.3124 0.04721,0.38961c-0.04299,0.04494 -0.16053,-0.00258 -0.22289,-0.09016c-0.01466,-0.02062 -0.06822,0.07255 -0.14456,0.25152c-0.39142,0.91773 -1.02326,1.59136 -1.68891,1.80076c-0.18249,0.0574 -0.78695,0.04608 -0.96893,-0.01815z" fill="#d2af43" stroke="#000000" stroke-width="0" stroke-miterlimit="4"/><path d="M240.28957,184.19867c-0.31165,-0.11001 -0.7024,-0.37965 -0.89831,-0.61988c-0.04298,-0.05272 -0.08294,-0.09586 -0.08881,-0.09586c-0.04547,0 -0.39541,-0.55865 -0.56092,-0.8954c-0.20355,-0.41419 -0.20355,-0.41419 -0.28919,-0.34725c-0.17208,0.13449 -0.27337,-0.1755 -0.11645,-0.35632c0.07126,-0.08214 0.07128,-0.08214 -0.02227,-0.43714c-0.07088,-0.26904 -0.10852,-0.36732 -0.15542,-0.40583c-0.0791,-0.06496 -0.09774,-0.16232 -0.05738,-0.29963c0.02911,-0.0991 0.02831,-0.13428 -0.00903,-0.39209c-0.09784,-0.67571 -0.06855,-2.06218 0.05741,-2.71804c0.06734,-0.35074 0.12117,-0.59637 0.1385,-0.63225c0.01044,-0.02157 0.0199,-0.85919 0.02126,-1.88239c0.00137,-1.01394 0.00851,-1.89875 0.0159,-1.96627c0.01665,-0.15237 0.13543,-0.29192 0.21518,-0.25281c0.04647,0.02278 0.349,0.45205 0.40552,0.57538c0.01877,0.04094 0.22284,0.36648 0.552,0.88057c0.11533,0.18012 0.11533,0.18012 0.21119,0.10936c0.39681,-0.29282 0.62742,-0.37128 1.09116,-0.37128c0.45727,0 0.79095,0.11411 1.09413,0.37411c0.07792,0.06684 0.07792,0.06682 0.2305,-0.17201c0.08392,-0.13134 0.15727,-0.25035 0.16304,-0.26447c0.00577,-0.0141 0.08588,-0.14178 0.17809,-0.28371c0.0922,-0.14193 0.17234,-0.2704 0.17811,-0.28556c0.02021,-0.05312 0.30435,-0.48091 0.35319,-0.53172c0.06956,-0.0724 0.18115,-0.02135 0.2326,0.10639c0.04168,0.10346 0.04282,0.15528 0.04282,1.9436c0,1.8373 0,1.83729 0.05167,2.03645c0.17325,0.66772 0.24659,1.31054 0.24542,2.15089c-0.0009,0.62892 -0.01207,0.81967 -0.07434,1.26878c-0.0262,0.18892 -0.02538,0.20871 0.01064,0.25807c0.05952,0.08159 0.05095,0.2706 -0.01495,0.32924c-0.02967,0.0264 -0.06217,0.03808 -0.07221,0.02597c-0.01004,-0.01212 -0.0522,0.11004 -0.09369,0.27146c-0.04147,0.16144 -0.0889,0.33115 -0.10541,0.37715c-0.02787,0.07775 -0.0245,0.08966 0.04811,0.16894c0.0959,0.10473 0.12105,0.3124 0.04721,0.38961c-0.04299,0.04494 -0.16053,-0.00258 -0.22289,-0.09016c-0.01466,-0.02062 -0.06822,0.07255 -0.14456,0.25152c-0.39142,0.91773 -1.02326,1.59136 -1.68891,1.80076c-0.18249,0.0574 -0.78695,0.04608 -0.96893,-0.01815z" fill="#d2af43" stroke="#000000" stroke-width="0" stroke-miterlimit="4"/><path d="M240.28957,184.19867c-0.31165,-0.11001 -0.7024,-0.37965 -0.89831,-0.61988c-0.04298,-0.05272 -0.08294,-0.09586 -0.08881,-0.09586c-0.04547,0 -0.39541,-0.55865 -0.56092,-0.8954c-0.20355,-0.41419 -0.20355,-0.41419 -0.28919,-0.34725c-0.17208,0.13449 -0.27337,-0.1755 -0.11645,-0.35632c0.07126,-0.08214 0.07128,-0.08214 -0.02227,-0.43714c-0.07088,-0.26904 -0.10852,-0.36732 -0.15542,-0.40583c-0.0791,-0.06496 -0.09774,-0.16232 -0.05738,-0.29963c0.02911,-0.0991 0.02831,-0.13428 -0.00903,-0.39209c-0.09784,-0.67571 -0.06855,-2.06218 0.05741,-2.71804c0.06734,-0.35074 0.12117,-0.59637 0.1385,-0.63225c0.01044,-0.02157 0.0199,-0.85919 0.02126,-1.88239c0.00137,-1.01394 0.00851,-1.89875 0.0159,-1.96627c0.01665,-0.15237 0.13543,-0.29192 0.21518,-0.25281c0.04647,0.02278 0.349,0.45205 0.40552,0.57538c0.01877,0.04094 0.22284,0.36648 0.552,0.88057c0.11533,0.18012 0.11533,0.18012 0.21119,0.10936c0.39681,-0.29282 0.62742,-0.37128 1.09116,-0.37128c0.45727,0 0.79095,0.11411 1.09413,0.37411c0.07792,0.06684 0.07792,0.06682 0.2305,-0.17201c0.08392,-0.13134 0.15727,-0.25035 0.16304,-0.26447c0.00577,-0.0141 0.08588,-0.14178 0.17809,-0.28371c0.0922,-0.14193 0.17234,-0.2704 0.17811,-0.28556c0.02021,-0.05312 0.30435,-0.48091 0.35319,-0.53172c0.06956,-0.0724 0.18115,-0.02135 0.2326,0.10639c0.04168,0.10346 0.04282,0.15528 0.04282,1.9436c0,1.8373 0,1.83729 0.05167,2.03645c0.17325,0.66772 0.24659,1.31054 0.24542,2.15089c-0.0009,0.62892 -0.01207,0.81967 -0.07434,1.26878c-0.0262,0.18892 -0.02538,0.20871 0.01064,0.25807c0.05952,0.08159 0.05095,0.2706 -0.01495,0.32924c-0.02967,0.0264 -0.06217,0.03808 -0.07221,0.02597c-0.01004,-0.01212 -0.0522,0.11004 -0.09369,0.27146c-0.04147,0.16144 -0.0889,0.33115 -0.10541,0.37715c-0.02787,0.07775 -0.0245,0.08966 0.04811,0.16894c0.0959,0.10473 0.12105,0.3124 0.04721,0.38961c-0.04299,0.04494 -0.16053,-0.00258 -0.22289,-0.09016c-0.01466,-0.02062 -0.06822,0.07255 -0.14456,0.25152c-0.39142,0.91773 -1.02326,1.59136 -1.68891,1.80076c-0.18249,0.0574 -0.78695,0.04608 -0.96893,-0.01815z" fill="#d2af43" stroke="#000000" stroke-width="0" stroke-miterlimit="4"/><path d="M240.28957,184.19867c-0.31165,-0.11001 -0.7024,-0.37965 -0.89831,-0.61988c-0.04298,-0.05272 -0.08294,-0.09586 -0.08881,-0.09586c-0.04547,0 -0.39541,-0.55865 -0.56092,-0.8954c-0.20355,-0.41419 -0.20355,-0.41419 -0.28919,-0.34725c-0.17208,0.13449 -0.27337,-0.1755 -0.11645,-0.35632c0.07126,-0.08214 0.07128,-0.08214 -0.02227,-0.43714c-0.07088,-0.26904 -0.10852,-0.36732 -0.15542,-0.40583c-0.0791,-0.06496 -0.09774,-0.16232 -0.05738,-0.29963c0.02911,-0.0991 0.02831,-0.13428 -0.00903,-0.39209c-0.09784,-0.67571 -0.06855,-2.06218 0.05741,-2.71804c0.06734,-0.35074 0.12117,-0.59637 0.1385,-0.63225c0.01044,-0.02157 0.0199,-0.85919 0.02126,-1.88239c0.00137,-1.01394 0.00851,-1.89875 0.0159,-1.96627c0.01665,-0.15237 0.13543,-0.29192 0.21518,-0.25281c0.04647,0.02278 0.349,0.45205 0.40552,0.57538c0.01877,0.04094 0.22284,0.36648 0.552,0.88057c0.11533,0.18012 0.11533,0.18012 0.21119,0.10936c0.39681,-0.29282 0.62742,-0.37128 1.09116,-0.37128c0.45727,0 0.79095,0.11411 1.09413,0.37411c0.07792,0.06684 0.07792,0.06682 0.2305,-0.17201c0.08392,-0.13134 0.15727,-0.25035 0.16304,-0.26447c0.00577,-0.0141 0.08588,-0.14178 0.17809,-0.28371c0.0922,-0.14193 0.17234,-0.2704 0.17811,-0.28556c0.02021,-0.05312 0.30435,-0.48091 0.35319,-0.53172c0.06956,-0.0724 0.18115,-0.02135 0.2326,0.10639c0.04168,0.10346 0.04282,0.15528 0.04282,1.9436c0,1.8373 0,1.83729 0.05167,2.03645c0.17325,0.66772 0.24659,1.31054 0.24542,2.15089c-0.0009,0.62892 -0.01207,0.81967 -0.07434,1.26878c-0.0262,0.18892 -0.02538,0.20871 0.01064,0.25807c0.05952,0.08159 0.05095,0.2706 -0.01495,0.32924c-0.02967,0.0264 -0.06217,0.03808 -0.07221,0.02597c-0.01004,-0.01212 -0.0522,0.11004 -0.09369,0.27146c-0.04147,0.16144 -0.0889,0.33115 -0.10541,0.37715c-0.02787,0.07775 -0.0245,0.08966 0.04811,0.16894c0.0959,0.10473 0.12105,0.3124 0.04721,0.38961c-0.04299,0.04494 -0.16053,-0.00258 -0.22289,-0.09016c-0.01466,-0.02062 -0.06822,0.07255 -0.14456,0.25152c-0.39142,0.91773 -1.02326,1.59136 -1.68891,1.80076c-0.18249,0.0574 -0.78695,0.04608 -0.96893,-0.01815z" fill="#d2af43" stroke="#000000" stroke-width="0" stroke-miterlimit="4"/><path d="M240.28957,184.19867c-0.31165,-0.11001 -0.7024,-0.37965 -0.89831,-0.61988c-0.04298,-0.05272 -0.08294,-0.09586 -0.08881,-0.09586c-0.04547,0 -0.39541,-0.55865 -0.56092,-0.8954c-0.20355,-0.41419 -0.20355,-0.41419 -0.28919,-0.34725c-0.17208,0.13449 -0.27337,-0.1755 -0.11645,-0.35632c0.07126,-0.08214 0.07128,-0.08214 -0.02227,-0.43714c-0.07088,-0.26904 -0.10852,-0.36732 -0.15542,-0.40583c-0.0791,-0.06496 -0.09774,-0.16232 -0.05738,-0.29963c0.02911,-0.0991 0.02831,-0.13428 -0.00903,-0.39209c-0.09784,-0.67571 -0.06855,-2.06218 0.05741,-2.71804c0.06734,-0.35074 0.12117,-0.59637 0.1385,-0.63225c0.01044,-0.02157 0.0199,-0.85919 0.02126,-1.88239c0.00137,-1.01394 0.00851,-1.89875 0.0159,-1.96627c0.01665,-0.15237 0.13543,-0.29192 0.21518,-0.25281c0.04647,0.02278 0.349,0.45205 0.40552,0.57538c0.01877,0.04094 0.22284,0.36648 0.552,0.88057c0.11533,0.18012 0.11533,0.18012 0.21119,0.10936c0.39681,-0.29282 0.62742,-0.37128 1.09116,-0.37128c0.45727,0 0.79095,0.11411 1.09413,0.37411c0.07792,0.06684 0.07792,0.06682 0.2305,-0.17201c0.08392,-0.13134 0.15727,-0.25035 0.16304,-0.26447c0.00577,-0.0141 0.08588,-0.14178 0.17809,-0.28371c0.0922,-0.14193 0.17234,-0.2704 0.17811,-0.28556c0.02021,-0.05312 0.30435,-0.48091 0.35319,-0.53172c0.06956,-0.0724 0.18115,-0.02135 0.2326,0.10639c0.04168,0.10346 0.04282,0.15528 0.04282,1.9436c0,1.8373 0,1.83729 0.05167,2.03645c0.17325,0.66772 0.24659,1.31054 0.24542,2.15089c-0.0009,0.62892 -0.01207,0.81967 -0.07434,1.26878c-0.0262,0.18892 -0.02538,0.20871 0.01064,0.25807c0.05952,0.08159 0.05095,0.2706 -0.01495,0.32924c-0.02967,0.0264 -0.06217,0.03808 -0.07221,0.02597c-0.01004,-0.01212 -0.0522,0.11004 -0.09369,0.27146c-0.04147,0.16144 -0.0889,0.33115 -0.10541,0.37715c-0.02787,0.07775 -0.0245,0.08966 0.04811,0.16894c0.0959,0.10473 0.12105,0.3124 0.04721,0.38961c-0.04299,0.04494 -0.16053,-0.00258 -0.22289,-0.09016c-0.01466,-0.02062 -0.06822,0.07255 -0.14456,0.25152c-0.39142,0.91773 -1.02326,1.59136 -1.68891,1.80076c-0.18249,0.0574 -0.78695,0.04608 -0.96893,-0.01815z" fill="#d2af43" stroke="#000000" stroke-width="0" stroke-miterlimit="4"/><path d="M240.28957,184.19867c-0.31165,-0.11001 -0.7024,-0.37965 -0.89831,-0.61988c-0.04298,-0.05272 -0.08294,-0.09586 -0.08881,-0.09586c-0.04547,0 -0.39541,-0.55865 -0.56092,-0.8954c-0.20355,-0.41419 -0.20355,-0.41419 -0.28919,-0.34725c-0.17208,0.13449 -0.27337,-0.1755 -0.11645,-0.35632c0.07126,-0.08214 0.07128,-0.08214 -0.02227,-0.43714c-0.07088,-0.26904 -0.10852,-0.36732 -0.15542,-0.40583c-0.0791,-0.06496 -0.09774,-0.16232 -0.05738,-0.29963c0.02911,-0.0991 0.02831,-0.13428 -0.00903,-0.39209c-0.09784,-0.67571 -0.06855,-2.06218 0.05741,-2.71804c0.06734,-0.35074 0.12117,-0.59637 0.1385,-0.63225c0.01044,-0.02157 0.0199,-0.85919 0.02126,-1.88239c0.00137,-1.01394 0.00851,-1.89875 0.0159,-1.96627c0.01665,-0.15237 0.13543,-0.29192 0.21518,-0.25281c0.04647,0.02278 0.349,0.45205 0.40552,0.57538c0.01877,0.04094 0.22284,0.36648 0.552,0.88057c0.11533,0.18012 0.11533,0.18012 0.21119,0.10936c0.39681,-0.29282 0.62742,-0.37128 1.09116,-0.37128c0.45727,0 0.79095,0.11411 1.09413,0.37411c0.07792,0.06684 0.07792,0.06682 0.2305,-0.17201c0.08392,-0.13134 0.15727,-0.25035 0.16304,-0.26447c0.00577,-0.0141 0.08588,-0.14178 0.17809,-0.28371c0.0922,-0.14193 0.17234,-0.2704 0.17811,-0.28556c0.02021,-0.05312 0.30435,-0.48091 0.35319,-0.53172c0.06956,-0.0724 0.18115,-0.02135 0.2326,0.10639c0.04168,0.10346 0.04282,0.15528 0.04282,1.9436c0,1.8373 0,1.83729 0.05167,2.03645c0.17325,0.66772 0.24659,1.31054 0.24542,2.15089c-0.0009,0.62892 -0.01207,0.81967 -0.07434,1.26878c-0.0262,0.18892 -0.02538,0.20871 0.01064,0.25807c0.05952,0.08159 0.05095,0.2706 -0.01495,0.32924c-0.02967,0.0264 -0.06217,0.03808 -0.07221,0.02597c-0.01004,-0.01212 -0.0522,0.11004 -0.09369,0.27146c-0.04147,0.16144 -0.0889,0.33115 -0.10541,0.37715c-0.02787,0.07775 -0.0245,0.08966 0.04811,0.16894c0.0959,0.10473 0.12105,0.3124 0.04721,0.38961c-0.04299,0.04494 -0.16053,-0.00258 -0.22289,-0.09016c-0.01466,-0.02062 -0.06822,0.07255 -0.14456,0.25152c-0.39142,0.91773 -1.02326,1.59136 -1.68891,1.80076c-0.18249,0.0574 -0.78695,0.04608 -0.96893,-0.01815z" fill="#d2af43" stroke="#000000" stroke-width="0" stroke-miterlimit="4"/><path d="M240.28957,184.19867c-0.31165,-0.11001 -0.7024,-0.37965 -0.89831,-0.61988c-0.04298,-0.05272 -0.08294,-0.09586 -0.08881,-0.09586c-0.04547,0 -0.39541,-0.55865 -0.56092,-0.8954c-0.20355,-0.41419 -0.20355,-0.41419 -0.28919,-0.34725c-0.17208,0.13449 -0.27337,-0.1755 -0.11645,-0.35632c0.07126,-0.08214 0.07128,-0.08214 -0.02227,-0.43714c-0.07088,-0.26904 -0.10852,-0.36732 -0.15542,-0.40583c-0.0791,-0.06496 -0.09774,-0.16232 -0.05738,-0.29963c0.02911,-0.0991 0.02831,-0.13428 -0.00903,-0.39209c-0.09784,-0.67571 -0.06855,-2.06218 0.05741,-2.71804c0.06734,-0.35074 0.12117,-0.59637 0.1385,-0.63225c0.01044,-0.02157 0.0199,-0.85919 0.02126,-1.88239c0.00137,-1.01394 0.00851,-1.89875 0.0159,-1.96627c0.01665,-0.15237 0.13543,-0.29192 0.21518,-0.25281c0.04647,0.02278 0.349,0.45205 0.40552,0.57538c0.01877,0.04094 0.22284,0.36648 0.552,0.88057c0.11533,0.18012 0.11533,0.18012 0.21119,0.10936c0.39681,-0.29282 0.62742,-0.37128 1.09116,-0.37128c0.45727,0 0.79095,0.11411 1.09413,0.37411c0.07792,0.06684 0.07792,0.06682 0.2305,-0.17201c0.08392,-0.13134 0.15727,-0.25035 0.16304,-0.26447c0.00577,-0.0141 0.08588,-0.14178 0.17809,-0.28371c0.0922,-0.14193 0.17234,-0.2704 0.17811,-0.28556c0.02021,-0.05312 0.30435,-0.48091 0.35319,-0.53172c0.06956,-0.0724 0.18115,-0.02135 0.2326,0.10639c0.04168,0.10346 0.04282,0.15528 0.04282,1.9436c0,1.8373 0,1.83729 0.05167,2.03645c0.17325,0.66772 0.24659,1.31054 0.24542,2.15089c-0.0009,0.62892 -0.01207,0.81967 -0.07434,1.26878c-0.0262,0.18892 -0.02538,0.20871 0.01064,0.25807c0.05952,0.08159 0.05095,0.2706 -0.01495,0.32924c-0.02967,0.0264 -0.06217,0.03808 -0.07221,0.02597c-0.01004,-0.01212 -0.0522,0.11004 -0.09369,0.27146c-0.04147,0.16144 -0.0889,0.33115 -0.10541,0.37715c-0.02787,0.07775 -0.0245,0.08966 0.04811,0.16894c0.0959,0.10473 0.12105,0.3124 0.04721,0.38961c-0.04299,0.04494 -0.16053,-0.00258 -0.22289,-0.09016c-0.01466,-0.02062 -0.06822,0.07255 -0.14456,0.25152c-0.39142,0.91773 -1.02326,1.59136 -1.68891,1.80076c-0.18249,0.0574 -0.78695,0.04608 -0.96893,-0.01815z" fill="#d2af43" stroke="#000000" stroke-width="0" stroke-miterlimit="4"/><path d="M240.28957,184.19867c-0.31165,-0.11001 -0.7024,-0.37965 -0.89831,-0.61988c-0.04298,-0.05272 -0.08294,-0.09586 -0.08881,-0.09586c-0.04547,0 -0.39541,-0.55865 -0.56092,-0.8954c-0.20355,-0.41419 -0.20355,-0.41419 -0.28919,-0.34725c-0.17208,0.13449 -0.27337,-0.1755 -0.11645,-0.35632c0.07126,-0.08214 0.07128,-0.08214 -0.02227,-0.43714c-0.07088,-0.26904 -0.10852,-0.36732 -0.15542,-0.40583c-0.0791,-0.06496 -0.09774,-0.16232 -0.05738,-0.29963c0.02911,-0.0991 0.02831,-0.13428 -0.00903,-0.39209c-0.09784,-0.67571 -0.06855,-2.06218 0.05741,-2.71804c0.06734,-0.35074 0.12117,-0.59637 0.1385,-0.63225c0.01044,-0.02157 0.0199,-0.85919 0.02126,-1.88239c0.00137,-1.01394 0.00851,-1.89875 0.0159,-1.96627c0.01665,-0.15237 0.13543,-0.29192 0.21518,-0.25281c0.04647,0.02278 0.349,0.45205 0.40552,0.57538c0.01877,0.04094 0.22284,0.36648 0.552,0.88057c0.11533,0.18012 0.11533,0.18012 0.21119,0.10936c0.39681,-0.29282 0.62742,-0.37128 1.09116,-0.37128c0.45727,0 0.79095,0.11411 1.09413,0.37411c0.07792,0.06684 0.07792,0.06682 0.2305,-0.17201c0.08392,-0.13134 0.15727,-0.25035 0.16304,-0.26447c0.00577,-0.0141 0.08588,-0.14178 0.17809,-0.28371c0.0922,-0.14193 0.17234,-0.2704 0.17811,-0.28556c0.02021,-0.05312 0.30435,-0.48091 0.35319,-0.53172c0.06956,-0.0724 0.18115,-0.02135 0.2326,0.10639c0.04168,0.10346 0.04282,0.15528 0.04282,1.9436c0,1.8373 0,1.83729 0.05167,2.03645c0.17325,0.66772 0.24659,1.31054 0.24542,2.15089c-0.0009,0.62892 -0.01207,0.81967 -0.07434,1.26878c-0.0262,0.18892 -0.02538,0.20871 0.01064,0.25807c0.05952,0.08159 0.05095,0.2706 -0.01495,0.32924c-0.02967,0.0264 -0.06217,0.03808 -0.07221,0.02597c-0.01004,-0.01212 -0.0522,0.11004 -0.09369,0.27146c-0.04147,0.16144 -0.0889,0.33115 -0.10541,0.37715c-0.02787,0.07775 -0.0245,0.08966 0.04811,0.16894c0.0959,0.10473 0.12105,0.3124 0.04721,0.38961c-0.04299,0.04494 -0.16053,-0.00258 -0.22289,-0.09016c-0.01466,-0.02062 -0.06822,0.07255 -0.14456,0.25152c-0.39142,0.91773 -1.02326,1.59136 -1.68891,1.80076c-0.18249,0.0574 -0.78695,0.04608 -0.96893,-0.01815z" fill="#d2af43" stroke="#000000" stroke-width="0" stroke-miterlimit="4"/><path d="M240.38966,184.27903c-0.32548,-0.11301 -0.73356,-0.39005 -0.93816,-0.63686c-0.04489,-0.05416 -0.08662,-0.09848 -0.09276,-0.09848c-0.04748,0 -0.41296,-0.57394 -0.58581,-0.91992c-0.21257,-0.42552 -0.21257,-0.42553 -0.30201,-0.35676c-0.17971,0.13816 -0.28549,-0.1803 -0.12161,-0.36607c0.07441,-0.08438 0.07444,-0.08438 -0.02325,-0.44911c-0.07403,-0.27641 -0.11334,-0.37738 -0.16232,-0.41694c-0.08261,-0.06673 -0.10207,-0.16675 -0.05993,-0.30784c0.0304,-0.10181 0.02957,-0.13796 -0.00942,-0.40283c-0.10217,-0.69421 -0.07158,-2.11864 0.05997,-2.79246c0.07032,-0.36034 0.12654,-0.61271 0.14463,-0.64956c0.0109,-0.02216 0.02077,-0.88272 0.02221,-1.93393c0.00143,-1.04169 0.00889,-1.95074 0.0166,-2.0201c0.01738,-0.15653 0.14145,-0.29992 0.22474,-0.25974c0.04853,0.0234 0.36448,0.46443 0.42352,0.59113c0.0196,0.04207 0.23272,0.37652 0.57649,0.90468c0.12044,0.18505 0.12045,0.18505 0.22056,0.11235c0.41441,-0.30084 0.65526,-0.38145 1.13958,-0.38145c0.47756,0 0.82605,0.11724 1.14267,0.38436c0.08138,0.06868 0.08138,0.06865 0.24073,-0.17672c0.08765,-0.13493 0.16425,-0.25721 0.17026,-0.27172c0.00602,-0.01448 0.0897,-0.14566 0.18599,-0.29147c0.09628,-0.14582 0.18,-0.27781 0.18601,-0.29339c0.02111,-0.05457 0.31785,-0.49408 0.36886,-0.54628c0.07265,-0.07439 0.18919,-0.02193 0.24291,0.10931c0.04353,0.10629 0.04472,0.15953 0.04472,1.99681c0,1.88761 0,1.88759 0.05397,2.09219c0.18094,0.686 0.25752,1.34643 0.2563,2.20979c-0.00093,0.64614 -0.0126,0.84212 -0.07763,1.30352c-0.02737,0.1941 -0.02651,0.21441 0.01111,0.26513c0.06215,0.08382 0.05321,0.27801 -0.01561,0.33825c-0.03099,0.02713 -0.06493,0.03913 -0.07541,0.02668c-0.01048,-0.01245 -0.05451,0.11304 -0.09784,0.27889c-0.04332,0.16586 -0.09284,0.34021 -0.11009,0.38747c-0.0291,0.07988 -0.02559,0.09213 0.05024,0.17357c0.10014,0.1076 0.12643,0.32094 0.04931,0.40027c-0.0449,0.04617 -0.16765,-0.00264 -0.23278,-0.09262c-0.01531,-0.02119 -0.07126,0.07454 -0.15097,0.25841c-0.40879,0.94286 -1.06866,1.63493 -1.76384,1.85005c-0.19059,0.05898 -0.82187,0.04734 -1.01192,-0.01864z" fill="#bd941b" stroke="#000000" stroke-width="0" stroke-miterlimit="4"/><path d="M240.65146,184.04375c-0.28411,-0.108 -0.64032,-0.37274 -0.81891,-0.6086c-0.03918,-0.05175 -0.07561,-0.09411 -0.08096,-0.09411c-0.04145,0 -0.36046,-0.54846 -0.51135,-0.87908c-0.18556,-0.40663 -0.18556,-0.40665 -0.26365,-0.34092c-0.15687,0.13203 -0.24921,-0.17233 -0.10616,-0.34984c0.06496,-0.08064 0.06498,-0.08063 -0.02027,-0.42918c-0.06462,-0.26414 -0.09894,-0.36062 -0.14169,-0.39843c-0.07211,-0.06378 -0.0891,-0.15937 -0.05232,-0.2942c0.02654,-0.09728 0.02581,-0.13183 -0.00823,-0.38493c-0.08918,-0.6634 -0.06249,-2.02461 0.05234,-2.66853c0.06139,-0.34435 0.11044,-0.58549 0.12625,-0.62071c0.00951,-0.02117 0.01814,-0.84354 0.01938,-1.84808c0.00125,-0.99545 0.00777,-1.86414 0.01449,-1.93042c0.01517,-0.14959 0.12346,-0.2866 0.19617,-0.24821c0.04236,0.02236 0.31815,0.4438 0.36969,0.5649c0.0171,0.0402 0.20315,0.3598 0.5032,0.86451c0.10513,0.17684 0.10513,0.17683 0.19254,0.10736c0.36174,-0.28749 0.57196,-0.36452 0.99472,-0.36452c0.41685,0 0.72105,0.11201 0.99744,0.3673c0.07103,0.06562 0.07104,0.06561 0.21013,-0.16887c0.0765,-0.12894 0.14337,-0.2458 0.14862,-0.25966c0.00527,-0.01383 0.07829,-0.13918 0.16235,-0.27853c0.08405,-0.13934 0.15712,-0.26548 0.16237,-0.28035c0.01843,-0.05216 0.27745,-0.47214 0.32198,-0.52203c0.06341,-0.07108 0.16514,-0.02096 0.21204,0.10445c0.03799,0.10157 0.03903,0.15244 0.03903,1.90818c0,1.80382 0,1.80381 0.0471,1.99932c0.15793,0.65555 0.22479,1.28668 0.22372,2.11171c-0.00082,0.61746 -0.011,0.80473 -0.06777,1.24567c-0.02389,0.18547 -0.02313,0.2049 0.00969,0.25339c0.05426,0.0801 0.04644,0.26567 -0.0136,0.32322c-0.02705,0.02592 -0.05668,0.0374 -0.06583,0.0255c-0.00915,-0.0119 -0.04758,0.10805 -0.0854,0.26651c-0.0378,0.15849 -0.08104,0.3251 -0.09608,0.37027c-0.02541,0.07635 -0.02234,0.08804 0.04385,0.16584c0.08742,0.10281 0.11036,0.30671 0.04305,0.38251c-0.03919,0.04413 -0.14634,-0.00254 -0.20319,-0.08853c-0.01337,-0.02024 -0.0622,0.07124 -0.13179,0.24694c-0.35683,0.901 -0.93282,1.56238 -1.53963,1.76794c-0.16636,0.05635 -0.7174,0.04523 -0.8833,-0.01783z" fill="#fff756" stroke="#000000" stroke-width="0" stroke-miterlimit="4"/><path d="M240.65146,184.04375c-0.28411,-0.108 -0.64032,-0.37274 -0.81891,-0.6086c-0.03918,-0.05175 -0.07561,-0.09411 -0.08096,-0.09411c-0.04145,0 -0.36046,-0.54846 -0.51135,-0.87908c-0.18556,-0.40663 -0.18556,-0.40665 -0.26365,-0.34092c-0.15687,0.13203 -0.24921,-0.17233 -0.10616,-0.34984c0.06496,-0.08064 0.06498,-0.08063 -0.02027,-0.42918c-0.06462,-0.26414 -0.09894,-0.36062 -0.14169,-0.39843c-0.07211,-0.06378 -0.0891,-0.15937 -0.05232,-0.2942c0.02654,-0.09728 0.02581,-0.13183 -0.00823,-0.38493c-0.08918,-0.6634 -0.06249,-2.02461 0.05234,-2.66853c0.06139,-0.34435 0.11044,-0.58549 0.12625,-0.62071c0.00951,-0.02117 0.01814,-0.84354 0.01938,-1.84808c0.00125,-0.99545 0.00777,-1.86414 0.01449,-1.93042c0.01517,-0.14959 0.12346,-0.2866 0.19617,-0.24821c0.04236,0.02236 0.31815,0.4438 0.36969,0.5649c0.0171,0.0402 0.20315,0.3598 0.5032,0.86451c0.10513,0.17684 0.10513,0.17683 0.19254,0.10736c0.36174,-0.28749 0.57196,-0.36452 0.99472,-0.36452c0.41685,0 0.72105,0.11201 0.99744,0.3673c0.07103,0.06562 0.07104,0.06561 0.21013,-0.16887c0.0765,-0.12894 0.14337,-0.2458 0.14862,-0.25966c0.00527,-0.01383 0.07829,-0.13918 0.16235,-0.27853c0.08405,-0.13934 0.15712,-0.26548 0.16237,-0.28035c0.01843,-0.05216 0.27745,-0.47214 0.32198,-0.52203c0.06341,-0.07108 0.16514,-0.02096 0.21204,0.10445c0.03799,0.10157 0.03903,0.15244 0.03903,1.90818c0,1.80382 0,1.80381 0.0471,1.99932c0.15793,0.65555 0.22479,1.28668 0.22372,2.11171c-0.00082,0.61746 -0.011,0.80473 -0.06777,1.24567c-0.02389,0.18547 -0.02313,0.2049 0.00969,0.25339c0.05426,0.0801 0.04644,0.26567 -0.0136,0.32322c-0.02705,0.02592 -0.05668,0.0374 -0.06583,0.0255c-0.00915,-0.0119 -0.04758,0.10805 -0.0854,0.26651c-0.0378,0.15849 -0.08104,0.3251 -0.09608,0.37027c-0.02541,0.07635 -0.02234,0.08804 0.04385,0.16584c0.08742,0.10281 0.11036,0.30671 0.04305,0.38251c-0.03919,0.04413 -0.14634,-0.00254 -0.20319,-0.08853c-0.01337,-0.02024 -0.0622,0.07124 -0.13179,0.24694c-0.35683,0.901 -0.93282,1.56238 -1.53963,1.76794c-0.16636,0.05635 -0.7174,0.04523 -0.8833,-0.01783z" fill="#fff756" stroke="#000000" stroke-width="0" stroke-miterlimit="4"/><path d="M240.65146,184.04375c-0.28411,-0.108 -0.64032,-0.37274 -0.81891,-0.6086c-0.03918,-0.05175 -0.07561,-0.09411 -0.08096,-0.09411c-0.04145,0 -0.36046,-0.54846 -0.51135,-0.87908c-0.18556,-0.40663 -0.18556,-0.40665 -0.26365,-0.34092c-0.15687,0.13203 -0.24921,-0.17233 -0.10616,-0.34984c0.06496,-0.08064 0.06498,-0.08063 -0.02027,-0.42918c-0.06462,-0.26414 -0.09894,-0.36062 -0.14169,-0.39843c-0.07211,-0.06378 -0.0891,-0.15937 -0.05232,-0.2942c0.02654,-0.09728 0.02581,-0.13183 -0.00823,-0.38493c-0.08918,-0.6634 -0.06249,-2.02461 0.05234,-2.66853c0.06139,-0.34435 0.11044,-0.58549 0.12625,-0.62071c0.00951,-0.02117 0.01814,-0.84354 0.01938,-1.84808c0.00125,-0.99545 0.00777,-1.86414 0.01449,-1.93042c0.01517,-0.14959 0.12346,-0.2866 0.19617,-0.24821c0.04236,0.02236 0.31815,0.4438 0.36969,0.5649c0.0171,0.0402 0.20315,0.3598 0.5032,0.86451c0.10513,0.17684 0.10513,0.17683 0.19254,0.10736c0.36174,-0.28749 0.57196,-0.36452 0.99472,-0.36452c0.41685,0 0.72105,0.11201 0.99744,0.3673c0.07103,0.06562 0.07104,0.06561 0.21013,-0.16887c0.0765,-0.12894 0.14337,-0.2458 0.14862,-0.25966c0.00527,-0.01383 0.07829,-0.13918 0.16235,-0.27853c0.08405,-0.13934 0.15712,-0.26548 0.16237,-0.28035c0.01843,-0.05216 0.27745,-0.47214 0.32198,-0.52203c0.06341,-0.07108 0.16514,-0.02096 0.21204,0.10445c0.03799,0.10157 0.03903,0.15244 0.03903,1.90818c0,1.80382 0,1.80381 0.0471,1.99932c0.15793,0.65555 0.22479,1.28668 0.22372,2.11171c-0.00082,0.61746 -0.011,0.80473 -0.06777,1.24567c-0.02389,0.18547 -0.02313,0.2049 0.00969,0.25339c0.05426,0.0801 0.04644,0.26567 -0.0136,0.32322c-0.02705,0.02592 -0.05668,0.0374 -0.06583,0.0255c-0.00915,-0.0119 -0.04758,0.10805 -0.0854,0.26651c-0.0378,0.15849 -0.08104,0.3251 -0.09608,0.37027c-0.02541,0.07635 -0.02234,0.08804 0.04385,0.16584c0.08742,0.10281 0.11036,0.30671 0.04305,0.38251c-0.03919,0.04413 -0.14634,-0.00254 -0.20319,-0.08853c-0.01337,-0.02024 -0.0622,0.07124 -0.13179,0.24694c-0.35683,0.901 -0.93282,1.56238 -1.53963,1.76794c-0.16636,0.05635 -0.7174,0.04523 -0.8833,-0.01783z" fill="#fff756" stroke="#000000" stroke-width="0" stroke-miterlimit="4"/><path d="M240.65146,184.04375c-0.28411,-0.108 -0.64032,-0.37274 -0.81891,-0.6086c-0.03918,-0.05175 -0.07561,-0.09411 -0.08096,-0.09411c-0.04145,0 -0.36046,-0.54846 -0.51135,-0.87908c-0.18556,-0.40663 -0.18556,-0.40665 -0.26365,-0.34092c-0.15687,0.13203 -0.24921,-0.17233 -0.10616,-0.34984c0.06496,-0.08064 0.06498,-0.08063 -0.02027,-0.42918c-0.06462,-0.26414 -0.09894,-0.36062 -0.14169,-0.39843c-0.07211,-0.06378 -0.0891,-0.15937 -0.05232,-0.2942c0.02654,-0.09728 0.02581,-0.13183 -0.00823,-0.38493c-0.08918,-0.6634 -0.06249,-2.02461 0.05234,-2.66853c0.06139,-0.34435 0.11044,-0.58549 0.12625,-0.62071c0.00951,-0.02117 0.01814,-0.84354 0.01938,-1.84808c0.00125,-0.99545 0.00777,-1.86414 0.01449,-1.93042c0.01517,-0.14959 0.12346,-0.2866 0.19617,-0.24821c0.04236,0.02236 0.31815,0.4438 0.36969,0.5649c0.0171,0.0402 0.20315,0.3598 0.5032,0.86451c0.10513,0.17684 0.10513,0.17683 0.19254,0.10736c0.36174,-0.28749 0.57196,-0.36452 0.99472,-0.36452c0.41685,0 0.72105,0.11201 0.99744,0.3673c0.07103,0.06562 0.07104,0.06561 0.21013,-0.16887c0.0765,-0.12894 0.14337,-0.2458 0.14862,-0.25966c0.00527,-0.01383 0.07829,-0.13918 0.16235,-0.27853c0.08405,-0.13934 0.15712,-0.26548 0.16237,-0.28035c0.01843,-0.05216 0.27745,-0.47214 0.32198,-0.52203c0.06341,-0.07108 0.16514,-0.02096 0.21204,0.10445c0.03799,0.10157 0.03903,0.15244 0.03903,1.90818c0,1.80382 0,1.80381 0.0471,1.99932c0.15793,0.65555 0.22479,1.28668 0.22372,2.11171c-0.00082,0.61746 -0.011,0.80473 -0.06777,1.24567c-0.02389,0.18547 -0.02313,0.2049 0.00969,0.25339c0.05426,0.0801 0.04644,0.26567 -0.0136,0.32322c-0.02705,0.02592 -0.05668,0.0374 -0.06583,0.0255c-0.00915,-0.0119 -0.04758,0.10805 -0.0854,0.26651c-0.0378,0.15849 -0.08104,0.3251 -0.09608,0.37027c-0.02541,0.07635 -0.02234,0.08804 0.04385,0.16584c0.08742,0.10281 0.11036,0.30671 0.04305,0.38251c-0.03919,0.04413 -0.14634,-0.00254 -0.20319,-0.08853c-0.01337,-0.02024 -0.0622,0.07124 -0.13179,0.24694c-0.35683,0.901 -0.93282,1.56238 -1.53963,1.76794c-0.16636,0.05635 -0.7174,0.04523 -0.8833,-0.01783z" fill="#fff756" stroke="#000000" stroke-width="0" stroke-miterlimit="4"/><path d="M240.65146,184.04375c-0.28411,-0.108 -0.64032,-0.37274 -0.81891,-0.6086c-0.03918,-0.05175 -0.07561,-0.09411 -0.08096,-0.09411c-0.04145,0 -0.36046,-0.54846 -0.51135,-0.87908c-0.18556,-0.40663 -0.18556,-0.40665 -0.26365,-0.34092c-0.15687,0.13203 -0.24921,-0.17233 -0.10616,-0.34984c0.06496,-0.08064 0.06498,-0.08063 -0.02027,-0.42918c-0.06462,-0.26414 -0.09894,-0.36062 -0.14169,-0.39843c-0.07211,-0.06378 -0.0891,-0.15937 -0.05232,-0.2942c0.02654,-0.09728 0.02581,-0.13183 -0.00823,-0.38493c-0.08918,-0.6634 -0.06249,-2.02461 0.05234,-2.66853c0.06139,-0.34435 0.11044,-0.58549 0.12625,-0.62071c0.00951,-0.02117 0.01814,-0.84354 0.01938,-1.84808c0.00125,-0.99545 0.00777,-1.86414 0.01449,-1.93042c0.01517,-0.14959 0.12346,-0.2866 0.19617,-0.24821c0.04236,0.02236 0.31815,0.4438 0.36969,0.5649c0.0171,0.0402 0.20315,0.3598 0.5032,0.86451c0.10513,0.17684 0.10513,0.17683 0.19254,0.10736c0.36174,-0.28749 0.57196,-0.36452 0.99472,-0.36452c0.41685,0 0.72105,0.11201 0.99744,0.3673c0.07103,0.06562 0.07104,0.06561 0.21013,-0.16887c0.0765,-0.12894 0.14337,-0.2458 0.14862,-0.25966c0.00527,-0.01383 0.07829,-0.13918 0.16235,-0.27853c0.08405,-0.13934 0.15712,-0.26548 0.16237,-0.28035c0.01843,-0.05216 0.27745,-0.47214 0.32198,-0.52203c0.06341,-0.07108 0.16514,-0.02096 0.21204,0.10445c0.03799,0.10157 0.03903,0.15244 0.03903,1.90818c0,1.80382 0,1.80381 0.0471,1.99932c0.15793,0.65555 0.22479,1.28668 0.22372,2.11171c-0.00082,0.61746 -0.011,0.80473 -0.06777,1.24567c-0.02389,0.18547 -0.02313,0.2049 0.00969,0.25339c0.05426,0.0801 0.04644,0.26567 -0.0136,0.32322c-0.02705,0.02592 -0.05668,0.0374 -0.06583,0.0255c-0.00915,-0.0119 -0.04758,0.10805 -0.0854,0.26651c-0.0378,0.15849 -0.08104,0.3251 -0.09608,0.37027c-0.02541,0.07635 -0.02234,0.08804 0.04385,0.16584c0.08742,0.10281 0.11036,0.30671 0.04305,0.38251c-0.03919,0.04413 -0.14634,-0.00254 -0.20319,-0.08853c-0.01337,-0.02024 -0.0622,0.07124 -0.13179,0.24694c-0.35683,0.901 -0.93282,1.56238 -1.53963,1.76794c-0.16636,0.05635 -0.7174,0.04523 -0.8833,-0.01783z" fill="#fff756" stroke="#000000" stroke-width="0" stroke-miterlimit="4"/><path d="M240.65146,184.04375c-0.28411,-0.108 -0.64032,-0.37274 -0.81891,-0.6086c-0.03918,-0.05175 -0.07561,-0.09411 -0.08096,-0.09411c-0.04145,0 -0.36046,-0.54846 -0.51135,-0.87908c-0.18556,-0.40663 -0.18556,-0.40665 -0.26365,-0.34092c-0.15687,0.13203 -0.24921,-0.17233 -0.10616,-0.34984c0.06496,-0.08064 0.06498,-0.08063 -0.02027,-0.42918c-0.06462,-0.26414 -0.09894,-0.36062 -0.14169,-0.39843c-0.07211,-0.06378 -0.0891,-0.15937 -0.05232,-0.2942c0.02654,-0.09728 0.02581,-0.13183 -0.00823,-0.38493c-0.08918,-0.6634 -0.06249,-2.02461 0.05234,-2.66853c0.06139,-0.34435 0.11044,-0.58549 0.12625,-0.62071c0.00951,-0.02117 0.01814,-0.84354 0.01938,-1.84808c0.00125,-0.99545 0.00777,-1.86414 0.01449,-1.93042c0.01517,-0.14959 0.12346,-0.2866 0.19617,-0.24821c0.04236,0.02236 0.31815,0.4438 0.36969,0.5649c0.0171,0.0402 0.20315,0.3598 0.5032,0.86451c0.10513,0.17684 0.10513,0.17683 0.19254,0.10736c0.36174,-0.28749 0.57196,-0.36452 0.99472,-0.36452c0.41685,0 0.72105,0.11201 0.99744,0.3673c0.07103,0.06562 0.07104,0.06561 0.21013,-0.16887c0.0765,-0.12894 0.14337,-0.2458 0.14862,-0.25966c0.00527,-0.01383 0.07829,-0.13918 0.16235,-0.27853c0.08405,-0.13934 0.15712,-0.26548 0.16237,-0.28035c0.01843,-0.05216 0.27745,-0.47214 0.32198,-0.52203c0.06341,-0.07108 0.16514,-0.02096 0.21204,0.10445c0.03799,0.10157 0.03903,0.15244 0.03903,1.90818c0,1.80382 0,1.80381 0.0471,1.99932c0.15793,0.65555 0.22479,1.28668 0.22372,2.11171c-0.00082,0.61746 -0.011,0.80473 -0.06777,1.24567c-0.02389,0.18547 -0.02313,0.2049 0.00969,0.25339c0.05426,0.0801 0.04644,0.26567 -0.0136,0.32322c-0.02705,0.02592 -0.05668,0.0374 -0.06583,0.0255c-0.00915,-0.0119 -0.04758,0.10805 -0.0854,0.26651c-0.0378,0.15849 -0.08104,0.3251 -0.09608,0.37027c-0.02541,0.07635 -0.02234,0.08804 0.04385,0.16584c0.08742,0.10281 0.11036,0.30671 0.04305,0.38251c-0.03919,0.04413 -0.14634,-0.00254 -0.20319,-0.08853c-0.01337,-0.02024 -0.0622,0.07124 -0.13179,0.24694c-0.35683,0.901 -0.93282,1.56238 -1.53963,1.76794c-0.16636,0.05635 -0.7174,0.04523 -0.8833,-0.01783z" fill="#fff756" stroke="#000000" stroke-width="0" stroke-miterlimit="4"/><path d="M240.65146,184.04375c-0.28411,-0.108 -0.64032,-0.37274 -0.81891,-0.6086c-0.03918,-0.05175 -0.07561,-0.09411 -0.08096,-0.09411c-0.04145,0 -0.36046,-0.54846 -0.51135,-0.87908c-0.18556,-0.40663 -0.18556,-0.40665 -0.26365,-0.34092c-0.15687,0.13203 -0.24921,-0.17233 -0.10616,-0.34984c0.06496,-0.08064 0.06498,-0.08063 -0.02027,-0.42918c-0.06462,-0.26414 -0.09894,-0.36062 -0.14169,-0.39843c-0.07211,-0.06378 -0.0891,-0.15937 -0.05232,-0.2942c0.02654,-0.09728 0.02581,-0.13183 -0.00823,-0.38493c-0.08918,-0.6634 -0.06249,-2.02461 0.05234,-2.66853c0.06139,-0.34435 0.11044,-0.58549 0.12625,-0.62071c0.00951,-0.02117 0.01814,-0.84354 0.01938,-1.84808c0.00125,-0.99545 0.00777,-1.86414 0.01449,-1.93042c0.01517,-0.14959 0.12346,-0.2866 0.19617,-0.24821c0.04236,0.02236 0.31815,0.4438 0.36969,0.5649c0.0171,0.0402 0.20315,0.3598 0.5032,0.86451c0.10513,0.17684 0.10513,0.17683 0.19254,0.10736c0.36174,-0.28749 0.57196,-0.36452 0.99472,-0.36452c0.41685,0 0.72105,0.11201 0.99744,0.3673c0.07103,0.06562 0.07104,0.06561 0.21013,-0.16887c0.0765,-0.12894 0.14337,-0.2458 0.14862,-0.25966c0.00527,-0.01383 0.07829,-0.13918 0.16235,-0.27853c0.08405,-0.13934 0.15712,-0.26548 0.16237,-0.28035c0.01843,-0.05216 0.27745,-0.47214 0.32198,-0.52203c0.06341,-0.07108 0.16514,-0.02096 0.21204,0.10445c0.03799,0.10157 0.03903,0.15244 0.03903,1.90818c0,1.80382 0,1.80381 0.0471,1.99932c0.15793,0.65555 0.22479,1.28668 0.22372,2.11171c-0.00082,0.61746 -0.011,0.80473 -0.06777,1.24567c-0.02389,0.18547 -0.02313,0.2049 0.00969,0.25339c0.05426,0.0801 0.04644,0.26567 -0.0136,0.32322c-0.02705,0.02592 -0.05668,0.0374 -0.06583,0.0255c-0.00915,-0.0119 -0.04758,0.10805 -0.0854,0.26651c-0.0378,0.15849 -0.08104,0.3251 -0.09608,0.37027c-0.02541,0.07635 -0.02234,0.08804 0.04385,0.16584c0.08742,0.10281 0.11036,0.30671 0.04305,0.38251c-0.03919,0.04413 -0.14634,-0.00254 -0.20319,-0.08853c-0.01337,-0.02024 -0.0622,0.07124 -0.13179,0.24694c-0.35683,0.901 -0.93282,1.56238 -1.53963,1.76794c-0.16636,0.05635 -0.7174,0.04523 -0.8833,-0.01783z" fill="#fff756" stroke="#000000" stroke-width="0" stroke-miterlimit="4"/><path d="M240.65146,184.04375c-0.28411,-0.108 -0.64032,-0.37274 -0.81891,-0.6086c-0.03918,-0.05175 -0.07561,-0.09411 -0.08096,-0.09411c-0.04145,0 -0.36046,-0.54846 -0.51135,-0.87908c-0.18556,-0.40663 -0.18556,-0.40665 -0.26365,-0.34092c-0.15687,0.13203 -0.24921,-0.17233 -0.10616,-0.34984c0.06496,-0.08064 0.06498,-0.08063 -0.02027,-0.42918c-0.06462,-0.26414 -0.09894,-0.36062 -0.14169,-0.39843c-0.07211,-0.06378 -0.0891,-0.15937 -0.05232,-0.2942c0.02654,-0.09728 0.02581,-0.13183 -0.00823,-0.38493c-0.08918,-0.6634 -0.06249,-2.02461 0.05234,-2.66853c0.06139,-0.34435 0.11044,-0.58549 0.12625,-0.62071c0.00951,-0.02117 0.01814,-0.84354 0.01938,-1.84808c0.00125,-0.99545 0.00777,-1.86414 0.01449,-1.93042c0.01517,-0.14959 0.12346,-0.2866 0.19617,-0.24821c0.04236,0.02236 0.31815,0.4438 0.36969,0.5649c0.0171,0.0402 0.20315,0.3598 0.5032,0.86451c0.10513,0.17684 0.10513,0.17683 0.19254,0.10736c0.36174,-0.28749 0.57196,-0.36452 0.99472,-0.36452c0.41685,0 0.72105,0.11201 0.99744,0.3673c0.07103,0.06562 0.07104,0.06561 0.21013,-0.16887c0.0765,-0.12894 0.14337,-0.2458 0.14862,-0.25966c0.00527,-0.01383 0.07829,-0.13918 0.16235,-0.27853c0.08405,-0.13934 0.15712,-0.26548 0.16237,-0.28035c0.01843,-0.05216 0.27745,-0.47214 0.32198,-0.52203c0.06341,-0.07108 0.16514,-0.02096 0.21204,0.10445c0.03799,0.10157 0.03903,0.15244 0.03903,1.90818c0,1.80382 0,1.80381 0.0471,1.99932c0.15793,0.65555 0.22479,1.28668 0.22372,2.11171c-0.00082,0.61746 -0.011,0.80473 -0.06777,1.24567c-0.02389,0.18547 -0.02313,0.2049 0.00969,0.25339c0.05426,0.0801 0.04644,0.26567 -0.0136,0.32322c-0.02705,0.02592 -0.05668,0.0374 -0.06583,0.0255c-0.00915,-0.0119 -0.04758,0.10805 -0.0854,0.26651c-0.0378,0.15849 -0.08104,0.3251 -0.09608,0.37027c-0.02541,0.07635 -0.02234,0.08804 0.04385,0.16584c0.08742,0.10281 0.11036,0.30671 0.04305,0.38251c-0.03919,0.04413 -0.14634,-0.00254 -0.20319,-0.08853c-0.01337,-0.02024 -0.0622,0.07124 -0.13179,0.24694c-0.35683,0.901 -0.93282,1.56238 -1.53963,1.76794c-0.16636,0.05635 -0.7174,0.04523 -0.8833,-0.01783z" fill="#fff756" stroke="#000000" stroke-width="0" stroke-miterlimit="4"/><path d="M240.65146,184.04375c-0.28411,-0.108 -0.64032,-0.37274 -0.81891,-0.6086c-0.03918,-0.05175 -0.07561,-0.09411 -0.08096,-0.09411c-0.04145,0 -0.36046,-0.54846 -0.51135,-0.87908c-0.18556,-0.40663 -0.18556,-0.40665 -0.26365,-0.34092c-0.15687,0.13203 -0.24921,-0.17233 -0.10616,-0.34984c0.06496,-0.08064 0.06498,-0.08063 -0.02027,-0.42918c-0.06462,-0.26414 -0.09894,-0.36062 -0.14169,-0.39843c-0.07211,-0.06378 -0.0891,-0.15937 -0.05232,-0.2942c0.02654,-0.09728 0.02581,-0.13183 -0.00823,-0.38493c-0.08918,-0.6634 -0.06249,-2.02461 0.05234,-2.66853c0.06139,-0.34435 0.11044,-0.58549 0.12625,-0.62071c0.00951,-0.02117 0.01814,-0.84354 0.01938,-1.84808c0.00125,-0.99545 0.00777,-1.86414 0.01449,-1.93042c0.01517,-0.14959 0.12346,-0.2866 0.19617,-0.24821c0.04236,0.02236 0.31815,0.4438 0.36969,0.5649c0.0171,0.0402 0.20315,0.3598 0.5032,0.86451c0.10513,0.17684 0.10513,0.17683 0.19254,0.10736c0.36174,-0.28749 0.57196,-0.36452 0.99472,-0.36452c0.41685,0 0.72105,0.11201 0.99744,0.3673c0.07103,0.06562 0.07104,0.06561 0.21013,-0.16887c0.0765,-0.12894 0.14337,-0.2458 0.14862,-0.25966c0.00527,-0.01383 0.07829,-0.13918 0.16235,-0.27853c0.08405,-0.13934 0.15712,-0.26548 0.16237,-0.28035c0.01843,-0.05216 0.27745,-0.47214 0.32198,-0.52203c0.06341,-0.07108 0.16514,-0.02096 0.21204,0.10445c0.03799,0.10157 0.03903,0.15244 0.03903,1.90818c0,1.80382 0,1.80381 0.0471,1.99932c0.15793,0.65555 0.22479,1.28668 0.22372,2.11171c-0.00082,0.61746 -0.011,0.80473 -0.06777,1.24567c-0.02389,0.18547 -0.02313,0.2049 0.00969,0.25339c0.05426,0.0801 0.04644,0.26567 -0.0136,0.32322c-0.02705,0.02592 -0.05668,0.0374 -0.06583,0.0255c-0.00915,-0.0119 -0.04758,0.10805 -0.0854,0.26651c-0.0378,0.15849 -0.08104,0.3251 -0.09608,0.37027c-0.02541,0.07635 -0.02234,0.08804 0.04385,0.16584c0.08742,0.10281 0.11036,0.30671 0.04305,0.38251c-0.03919,0.04413 -0.14634,-0.00254 -0.20319,-0.08853c-0.01337,-0.02024 -0.0622,0.07124 -0.13179,0.24694c-0.35683,0.901 -0.93282,1.56238 -1.53963,1.76794c-0.16636,0.05635 -0.7174,0.04523 -0.8833,-0.01783z" fill="#fff53e" stroke="#000000" stroke-width="0" stroke-miterlimit="4"/><path d="M241.02796,180.15929c-0.17093,-0.45436 -0.15286,-0.51626 0.15067,-0.51626c0.31908,0 0.33539,0.06564 0.1424,0.57305c-0.12105,0.31826 -0.15442,0.31177 -0.29306,-0.05678z" fill="#d2af43" stroke="none" stroke-width="1.7374" stroke-miterlimit="10"/><path d="M241.02796,180.15929c-0.17093,-0.45436 -0.15286,-0.51626 0.15067,-0.51626c0.31908,0 0.33539,0.06564 0.1424,0.57305c-0.12105,0.31826 -0.15442,0.31177 -0.29306,-0.05678z" fill="#d2af43" stroke="none" stroke-width="1.7374" stroke-miterlimit="10"/><path d="M241.02796,180.15929c-0.17093,-0.45436 -0.15286,-0.51626 0.15067,-0.51626c0.31908,0 0.33539,0.06564 0.1424,0.57305c-0.12105,0.31826 -0.15442,0.31177 -0.29306,-0.05678z" fill="#d2af43" stroke="none" stroke-width="1.7374" stroke-miterlimit="10"/><path d="M241.02796,180.15929c-0.17093,-0.45436 -0.15286,-0.51626 0.15067,-0.51626c0.31908,0 0.33539,0.06564 0.1424,0.57305c-0.12105,0.31826 -0.15442,0.31177 -0.29306,-0.05678z" fill="#d2af43" stroke="none" stroke-width="1.7374" stroke-miterlimit="10"/><path d="M241.02796,180.15929c-0.17093,-0.45436 -0.15286,-0.51626 0.15067,-0.51626c0.31908,0 0.33539,0.06564 0.1424,0.57305c-0.12105,0.31826 -0.15442,0.31177 -0.29306,-0.05678z" fill="#d2af43" stroke="none" stroke-width="1.7374" stroke-miterlimit="10"/><path d="M241.02796,180.15929c-0.17093,-0.45436 -0.15286,-0.51626 0.15067,-0.51626c0.31908,0 0.33539,0.06564 0.1424,0.57305c-0.12105,0.31826 -0.15442,0.31177 -0.29306,-0.05678z" fill="#d2af43" stroke="none" stroke-width="1.7374" stroke-miterlimit="10"/><path d="M241.02796,180.15929c-0.17093,-0.45436 -0.15286,-0.51626 0.15067,-0.51626c0.31908,0 0.33539,0.06564 0.1424,0.57305c-0.12105,0.31826 -0.15442,0.31177 -0.29306,-0.05678z" fill="#d2af43" stroke="none" stroke-width="1.7374" stroke-miterlimit="10"/><path d="M241.02796,180.15929c-0.17093,-0.45436 -0.15286,-0.51626 0.15067,-0.51626c0.31908,0 0.33539,0.06564 0.1424,0.57305c-0.12105,0.31826 -0.15442,0.31177 -0.29306,-0.05678z" fill="#d2af43" stroke="none" stroke-width="1.7374" stroke-miterlimit="10"/><path d="M241.02796,180.15929c-0.17093,-0.45436 -0.15286,-0.51626 0.15067,-0.51626c0.31908,0 0.33539,0.06564 0.1424,0.57305c-0.12105,0.31826 -0.15442,0.31177 -0.29306,-0.05678z" fill="#bd941b" stroke="none" stroke-width="1.7374" stroke-miterlimit="10"/><path d="M239.9649,178.3775c0,-0.47233 0.10262,-0.74325 0.28155,-0.74325c0.18367,0 0.26058,0.20137 0.26844,0.70307c0.00645,0.41117 -0.02176,0.55881 -0.13443,0.70328c-0.20647,0.26477 -0.41557,-0.06892 -0.41557,-0.66312z" fill="#d2af43" stroke="none" stroke-width="1.7374" stroke-miterlimit="10"/><path d="M239.9649,178.3775c0,-0.47233 0.10262,-0.74325 0.28155,-0.74325c0.18367,0 0.26058,0.20137 0.26844,0.70307c0.00645,0.41117 -0.02176,0.55881 -0.13443,0.70328c-0.20647,0.26477 -0.41557,-0.06892 -0.41557,-0.66312z" fill="#d2af43" stroke="none" stroke-width="1.7374" stroke-miterlimit="10"/><path d="M239.9649,178.3775c0,-0.47233 0.10262,-0.74325 0.28155,-0.74325c0.18367,0 0.26058,0.20137 0.26844,0.70307c0.00645,0.41117 -0.02176,0.55881 -0.13443,0.70328c-0.20647,0.26477 -0.41557,-0.06892 -0.41557,-0.66312z" fill="#bd941b" stroke="none" stroke-width="1.7374" stroke-miterlimit="10"/><path d="M241.89396,178.82985c-0.04687,-0.16163 -0.05379,-0.69427 -0.01126,-0.86614c0.08163,-0.32995 0.2881,-0.44299 0.41124,-0.22509c0.16891,0.29893 0.15974,1.04418 -0.01588,1.29093c-0.12561,0.1765 -0.30152,0.08502 -0.38407,-0.19972z" fill="#d2af43" stroke="none" stroke-width="1.7374" stroke-miterlimit="10"/><path d="M241.89396,178.82985c-0.04687,-0.16163 -0.05379,-0.69427 -0.01126,-0.86614c0.08163,-0.32995 0.2881,-0.44299 0.41124,-0.22509c0.16891,0.29893 0.15974,1.04418 -0.01588,1.29093c-0.12561,0.1765 -0.30152,0.08502 -0.38407,-0.19972z" fill="#d2af43" stroke="none" stroke-width="1.7374" stroke-miterlimit="10"/><path d="M241.89396,178.82985c-0.04687,-0.16163 -0.05379,-0.69427 -0.01126,-0.86614c0.08163,-0.32995 0.2881,-0.44299 0.41124,-0.22509c0.16891,0.29893 0.15974,1.04418 -0.01588,1.29093c-0.12561,0.1765 -0.30152,0.08502 -0.38407,-0.19972z" fill="#bd941b" stroke="none" stroke-width="1.7374" stroke-miterlimit="10"/><path d="M244.80748,194.02572c0,2.71347 -2.15236,4.91317 -4.80744,4.91317c-2.65507,0 -4.80744,-2.1997 -4.80744,-4.91317c0,-2.71347 2.15237,-4.91317 4.80744,-4.91317c2.65507,0 4.80744,2.1997 4.80744,4.91317z" fill="#9966ff" stroke="#ffffff" stroke-width="1" stroke-miterlimit="10"/><text transform="translate(237.0747,197.69575) scale(0.24898,0.24898)" font-size="40" xml:space="preserve" fill="#ffffff" fill-rule="nonzero" stroke="none" stroke-width="1" stroke-linecap="butt" stroke-linejoin="miter" stroke-miterlimit="10" stroke-dasharray="" stroke-dashoffset="0" font-family="Sans Serif" font-weight="normal" text-anchor="start" style="mix-blend-mode: normal"><tspan x="0" dy="0">1</tspan></text></g></g></svg>