<svg version="1.1" xmlns="http://www.w3.org/2000/svg" xmlns:xlink="http://www.w3.org/1999/xlink" width="39.83" height="62.56085" viewBox="0,0,39.83,62.56085"><g transform="translate(-220.08501,-148.71959)"><g data-paper-data="{&quot;isPaintingLayer&quot;:true}" fill="#ff0000" fill-rule="nonzero" stroke="#000000" stroke-width="3.5" stroke-linecap="butt" stroke-linejoin="round" stroke-miterlimit="2" stroke-dasharray="" stroke-dashoffset="0" style="mix-blend-mode: normal"><path d="M245.76862,189.72075c0,-2.2829 -0.92052,-4.19759 -2.94567,-6.11228c-1.96379,-1.7674 -4.90946,-2.79839 -8.95977,-3.01932l-1.77968,-0.07364l3.31388,-6.55414c2.82294,-0.51549 4.97083,-1.3992 6.07546,-2.57747c0.85916,-0.81006 1.28873,-1.69376 1.53421,-2.57747v-0.8837c0,-1.84105 -1.53421,-3.16661 -3.19115,-3.16661c-1.59557,0 -2.82294,1.25191 -3.06841,2.65111l-0.1841,1.32556l-12.45775,-3.01932l0.24547,-1.25191c0.67505,-3.97666 2.45473,-7.36419 5.2163,-10.08895c3.00705,-2.57747 6.44367,-3.90302 10.2485,-3.90302c4.47988,0 8.34608,1.69377 11.53723,4.93401c2.82294,3.38753 4.29577,7.43784 4.29577,12.07728c0,3.38753 -0.79779,6.55414 -2.33199,9.27889c3.19115,3.75574 4.84809,8.2479 4.84809,13.40284c0,5.37587 -1.77968,10.0153 -5.15493,13.77104c-3.43662,3.6821 -7.97787,5.59679 -13.19417,5.59679c-4.29578,0 -8.22335,-1.39919 -11.53723,-4.19759c-3.12978,-2.87204 -5.2163,-6.62777 -6.13682,-11.11993l-0.30685,-1.17828l12.08955,-3.53481l0.24547,1.25191c0.49094,2.43018 3.00704,4.41852 5.70725,4.41852c2.94567,0 5.89135,-2.06198 5.89135,-5.44951z"/></g></g></svg>