<svg version="1.1" xmlns="http://www.w3.org/2000/svg" xmlns:xlink="http://www.w3.org/1999/xlink" width="30.14058" height="35.63084" viewBox="0,0,30.14058,35.63084"><g transform="translate(-224.92971,-164.45217)"><g data-paper-data="{&quot;isPaintingLayer&quot;:true}" fill-rule="nonzero" stroke-linecap="butt" stroke-linejoin="miter" stroke-miterlimit="10" stroke-dasharray="" stroke-dashoffset="0" style="mix-blend-mode: normal"><path d="M225.42971,179.52246c0,-8.04694 6.52335,-14.57029 14.57029,-14.57029c8.04694,0 14.57029,6.52335 14.57029,14.57029c0,8.04694 -6.52335,14.57029 -14.57029,14.57029c-8.04694,0 -14.57029,-6.52335 -14.57029,-14.57029z" fill="#9966ff" stroke="#ffffff" stroke-width="1"/><g stroke="none" stroke-width="0.35278"><path d="M231.86023,186.51344c-0.12423,-0.03718 -0.29363,-0.19154 -0.36931,-0.33656c-0.04306,-0.08252 -0.11993,-1.07313 -0.35547,-4.58144c-0.29895,-4.45314 -0.30044,-4.48249 -0.28889,-5.71099c0.01125,-1.19792 0.01435,-1.24501 0.1041,-1.57487c0.34216,-1.2576 1.29271,-2.19189 2.55813,-2.51434l0.31627,-0.08059h6.1742h6.1742l0.31627,0.08059c1.26542,0.32248 2.21596,1.25675 2.55813,2.51434c0.08976,0.32988 0.09287,0.37687 0.10405,1.57487c0.01149,1.22836 0.00996,1.25831 -0.2891,5.71135c-0.23505,3.49997 -0.31257,4.4994 -0.35539,4.58144c-0.0756,0.14483 -0.2347,0.28424 -0.37969,0.3327c-0.14791,0.04943 -16.10259,0.05286 -16.26753,0.00349z" fill="#eec318"/><path d="M231.74326,186.42483c-0.29292,-0.17557 -0.26172,0.06781 -0.54582,-4.25878c-0.13959,-2.12607 -0.2691,-4.02665 -0.28777,-4.22351c-0.01869,-0.19685 -0.04287,-0.47437 -0.05381,-0.6167l-0.01985,-0.25878l0.76078,-0.00966l0.76078,-0.00966l0.02021,-1.03799c0.01768,-0.90745 0.03016,-1.07802 0.09933,-1.35639c0.15616,-0.62863 0.38909,-1.09612 0.80877,-1.62329c0.45618,-0.57301 1.21575,-1.05338 1.96652,-1.24369l0.35356,-0.08962h4.39329h4.39329l0.35356,0.08962c1.3715,0.34766 2.41799,1.42871 2.77528,2.86699c0.06915,0.27837 0.08164,0.44891 0.09933,1.35639l0.02021,1.03799l0.76151,0.00966l0.76151,0.00966l-0.01989,0.24089c-0.01093,0.13248 -0.03602,0.41001 -0.05574,0.6167c-0.01972,0.20672 -0.14792,2.08312 -0.28488,4.16983c-0.13696,2.08671 -0.25862,3.85037 -0.27032,3.91927c-0.03106,0.18276 -0.13561,0.33191 -0.29578,0.42193l-0.14086,0.07917l-8.10211,-0.00031l-8.10211,-0.00031z" fill="#ef9b1e"/><path d="M239.74596,180.46864c-0.10342,-0.10342 -0.10463,-0.10939 -0.10463,-0.51276c0,-0.39493 -0.00305,-0.41093 -0.0942,-0.4949c-0.36759,-0.3386 -0.2575,-0.92777 0.20987,-1.12304c0.3292,-0.13755 0.69766,0.01602 0.85467,0.35621c0.03634,0.07875 0.06608,0.19955 0.06608,0.26844c0,0.15743 -0.10343,0.38516 -0.22635,0.49837c-0.09117,0.08397 -0.0942,0.09996 -0.0942,0.4949c0,0.40336 -0.00122,0.40936 -0.10463,0.51276c-0.08205,0.08205 -0.13669,0.10463 -0.25331,0.10463c-0.11659,0 -0.17124,-0.02258 -0.25331,-0.10463z" fill="#ef9b1e"/><path d="M233.38591,184.5981c-0.0436,-0.03052 -0.09701,-0.08867 -0.11871,-0.1292c-0.02169,-0.04052 -0.06117,-0.38196 -0.08777,-0.75876c-0.02658,-0.3768 -0.07294,-1.01525 -0.10305,-1.41881c-0.03008,-0.40357 -0.07198,-1.04783 -0.09313,-1.43169c-0.02114,-0.38387 -0.05352,-0.89645 -0.07195,-1.13905c-0.03855,-0.50726 -0.00649,-0.64507 0.16666,-0.71643c0.07657,-0.03156 0.72887,-0.03998 2.55463,-0.033l2.45179,0.00936c0.04327,3.26297 3.71278,2.85843 3.8298,0l2.45179,-0.00936c1.82572,-0.00698 2.47805,0.00146 2.55463,0.033c0.17162,0.07076 0.20241,0.20401 0.16475,0.71334c-0.01805,0.24429 -0.04986,0.75825 -0.07067,1.14211c-0.02081,0.38387 -0.06243,1.02812 -0.09251,1.43169c-0.03008,0.40357 -0.07644,1.04204 -0.10302,1.41881c-0.02658,0.3768 -0.06608,0.71822 -0.08777,0.75876c-0.10577,0.19762 0.36434,0.18474 -6.73206,0.18474c-5.84615,0 -6.54244,-0.00585 -6.61336,-0.05552z" fill="#aa7b60"/><path d="M233.14435,182.71976c-0.03394,-0.05494 -0.13978,-1.73314 -0.1136,-1.80139c3.41064,-0.01639 7.74149,-0.03829 11.17153,-0.05873c2.50985,0 2.74487,0.00498 2.76548,0.05873c0.02618,0.06824 -0.07963,1.74647 -0.1136,1.80139c-0.03185,0.05155 -13.67798,0.05155 -13.70983,0z" fill="#7d5132"/><path d="M239.11319,181.22272c-0.23339,-0.12017 -0.62697,-0.51194 -0.75429,-0.75081c-0.2039,-0.38257 -0.22315,-0.55076 -0.23133,-2.0226l-0.0074,-1.32998h1.87911h1.87911l-0.0074,1.32998c-0.00819,1.47186 -0.02743,1.64006 -0.23133,2.0226c-0.13178,0.24722 -0.52516,0.63374 -0.77245,0.75897c-0.09347,0.04732 -0.25743,0.112 -0.36434,0.14374c-0.40836,0.12117 -0.98085,0.05858 -1.38962,-0.15189z" fill="#eec318"/><path d="M239.86787,180.52111c-0.06243,-0.02715 -0.13089,-0.08182 -0.15211,-0.12152c-0.02124,-0.03968 -0.03861,-0.24736 -0.03861,-0.46152c0,-0.38456 -0.00131,-0.39062 -0.10573,-0.49067c-0.34243,-0.32808 -0.26948,-0.84766 0.14903,-1.06127c0.41348,-0.21103 0.92309,0.1082 0.92309,0.57825c0,0.18018 -0.07497,0.34751 -0.2164,0.48302c-0.10442,0.10004 -0.10573,0.1061 -0.10573,0.49067c0,0.21416 -0.0174,0.42188 -0.03868,0.46165c-0.02126,0.03974 -0.09323,0.09506 -0.15991,0.12292c-0.14242,0.0595 -0.11428,0.05968 -0.25494,-0.00153z" fill="#aa7b60"/><path d="M232.42405,177.01145c-0.01146,-0.02987 -0.01286,-0.50103 -0.00306,-1.047c0.01538,-0.85909 0.02814,-1.03362 0.09474,-1.29692c0.15006,-0.59339 0.34787,-1.017 0.68192,-1.46031c0.50486,-0.67002 1.14017,-1.10845 1.95178,-1.34701c0.17716,-0.05206 0.3501,-0.11014 0.38428,-0.12906c0.08448,-0.04673 8.84671,-0.04673 8.93119,0c0.03418,0.01891 0.20712,0.077 0.38428,0.12906c0.4015,0.11802 0.68014,0.24372 1.00218,0.45209c0.67436,0.43635 1.25376,1.18095 1.51233,1.94362c0.18289,0.53942 0.2046,0.72865 0.20517,1.78962l0.00051,1.00218l-7.56224,0.00902c-6.73415,0.00804 -7.56451,0.00307 -7.58308,-0.04529z" fill="#aa7b60"/><path d="M239.76979,180.42736c-0.08687,-0.10323 -0.09267,-0.13373 -0.09267,-0.48742c0,-0.37153 -0.00171,-0.37924 -0.11185,-0.50469c-0.22848,-0.26021 -0.26453,-0.5511 -0.10114,-0.8155c0.23409,-0.37876 0.83525,-0.38026 1.06862,-0.00265c0.16302,0.26378 0.13041,0.55904 -0.0881,0.79761l-0.12326,0.13457v0.38398c0,0.36087 -0.00557,0.3906 -0.09267,0.4941c-0.07372,0.08761 -0.12065,0.11012 -0.22948,0.11012c-0.10883,0 -0.15577,-0.02252 -0.22948,-0.11012z" fill="#000000"/><path d="M232.46135,177.01544c-0.01063,-0.0277 -0.01416,-0.51154 -0.00785,-1.07519c0.00966,-0.8634 0.01991,-1.03019 0.06515,-1.05875c0.0729,-0.04603 14.88836,-0.04603 14.96125,0c0.04576,0.0289 0.05369,0.19129 0.05369,1.10007v1.06618l-7.52646,0.00902c-6.44153,0.00773 -7.52924,0.00178 -7.54577,-0.04134z" fill="#7d5132"/><path d="M233.48504,172.91661c0,-0.0181 0.11282,-0.13588 0.2507,-0.26172c0.42364,-0.38665 0.98788,-0.67982 1.61051,-0.83676c0.25599,-0.06454 0.47152,-0.06766 4.65302,-0.06766c4.1815,0 4.397,0.00313 4.65302,0.06766c0.6226,0.15695 1.18683,0.4501 1.61047,0.83676c0.1379,0.12585 0.2507,0.24364 0.2507,0.26172c0,0.01987 -2.57805,0.0329 -6.51424,0.0329c-3.93616,0 -6.5142,-0.01302 -6.5142,-0.0329z" fill="#7d5132"/></g><path d="M244.80747,194.02572c0,2.71347 -2.15236,4.91317 -4.80744,4.91317c-2.65507,0 -4.80744,-2.1997 -4.80744,-4.91317c0,-2.71347 2.15237,-4.91317 4.80744,-4.91317c2.65507,0 4.80744,2.1997 4.80744,4.91317z" fill="#9966ff" stroke="#ffffff" stroke-width="1"/><text transform="translate(237.30547,197.22288) scale(0.22881,0.22881)" font-size="40" xml:space="preserve" fill="#ffffff" fill-rule="nonzero" stroke="none" stroke-width="1" stroke-linecap="butt" stroke-linejoin="miter" stroke-miterlimit="10" stroke-dasharray="" stroke-dashoffset="0" font-family="Sans Serif" font-weight="normal" text-anchor="start" style="mix-blend-mode: normal"><tspan x="0" dy="0">2</tspan></text></g></g></svg>