<svg version="1.1" xmlns="http://www.w3.org/2000/svg" xmlns:xlink="http://www.w3.org/1999/xlink" width="45.35314" height="62.04536" viewBox="0,0,45.35314,62.04536"><g transform="translate(-217.32343,-148.97732)"><g data-paper-data="{&quot;isPaintingLayer&quot;:true}" fill="#ff0000" fill-rule="nonzero" stroke="#000000" stroke-width="3.5" stroke-linecap="butt" stroke-linejoin="round" stroke-miterlimit="2" stroke-dasharray="" stroke-dashoffset="0" style="mix-blend-mode: normal"><path d="M224.28973,159.63799c3.74347,-5.89136 9.14387,-8.91067 15.71027,-8.91067c6.5664,0 11.96681,3.01932 15.71027,8.91067c3.49799,5.52315 5.2163,12.37186 5.2163,20.32519c0,8.02697 -1.71831,14.87568 -5.2163,20.39882c-3.74347,5.89136 -9.14387,8.91068 -15.71027,8.91068c-6.5664,0 -11.9668,-3.01933 -15.71027,-8.91068c-3.00705,-4.78672 -5.2163,-12.2982 -5.2163,-20.39882c0,-8.10062 2.20925,-15.6121 5.2163,-20.32519zM245.52314,167.95954c-1.5342,-2.13562 -3.25252,-3.01932 -5.52314,-3.01932c-2.27062,0 -4.0503,0.95735 -5.52314,3.01932c-2.14789,3.09296 -3.25252,7.06963 -3.25252,12.00364c0,5.00766 1.10463,8.98432 3.25252,12.00364c1.47284,2.06197 3.25252,3.01932 5.52314,3.01932c2.27062,0 4.0503,-0.95735 5.52314,-3.01932c2.08652,-2.94568 3.19115,-6.92234 3.19115,-12.00364c0,-5.00765 -1.10463,-8.98432 -3.19115,-12.00364z"/></g></g></svg>