<svg version="1.1" xmlns="http://www.w3.org/2000/svg" xmlns:xlink="http://www.w3.org/1999/xlink" width="42.77566" height="61.75078" viewBox="0,0,42.77566,61.75078"><g transform="translate(-218.61221,-149.12463)"><g data-paper-data="{&quot;isPaintingLayer&quot;:true}" fill="#ff0000" fill-rule="nonzero" stroke="#000000" stroke-width="3.5" stroke-linecap="butt" stroke-linejoin="round" stroke-miterlimit="2" stroke-dasharray="" stroke-dashoffset="0" style="mix-blend-mode: normal"><path d="M233.18816,172.74629v1.25192h-12.27365v-1.25192c0,-6.03864 1.84105,-11.26722 5.33904,-15.46481c3.80483,-4.27123 8.53018,-6.40685 14.05333,-6.40685c5.46177,0 10.24849,1.98833 13.93059,6.03864c3.55936,4.05031 5.40041,8.98432 5.40041,14.65475c0,3.46117 -0.85915,6.92235 -2.51609,10.16259c-1.59558,3.31389 -3.55936,6.33321 -6.07546,9.27889c-1.28873,1.39919 -2.45473,2.72475 -3.74346,3.97666h12.08955v14.13925h-39.0302l2.20926,-8.17425c5.40041,-4.34488 12.21228,-10.45716 16.87627,-15.75938c2.39336,-2.65111 4.35714,-5.22858 5.82998,-7.58513c1.47284,-2.2829 2.08652,-4.12395 2.08652,-5.30222c0,-4.27123 -3.49799,-7.29056 -7.05735,-7.29056c-3.74347,0 -7.11872,3.31388 -7.11872,7.73241z"/></g></g></svg>