<svg version="1.1" xmlns="http://www.w3.org/2000/svg" xmlns:xlink="http://www.w3.org/1999/xlink" width="41.67104" height="61.7508" viewBox="0,0,41.67104,61.7508"><g transform="translate(-219.16449,-149.12461)"><g data-paper-data="{&quot;isPaintingLayer&quot;:true}" fill="#ff0000" fill-rule="nonzero" stroke="#000000" stroke-width="3.5" stroke-linecap="butt" stroke-linejoin="round" stroke-miterlimit="2" stroke-dasharray="" stroke-dashoffset="0" style="mix-blend-mode: normal"><path d="M240,179.9632c3.62072,0 6.87324,-3.24024 6.87324,-7.51148c0,-4.19759 -3.25252,-7.51148 -6.87324,-7.51148c-3.6821,0 -6.87324,3.31389 -6.87324,7.51148c0,4.19759 3.25252,7.51148 6.87324,7.51148zM256.07848,183.42437l-13.74648,25.62741l-14.78974,0.07364l9.2666,-17.01129c-4.41852,-0.73642 -8.16197,-2.87204 -10.98491,-6.33321c-3.25252,-3.97666 -4.90946,-8.76339 -4.90946,-14.13926c0,-5.67043 1.77968,-10.60444 5.27767,-14.65475c3.62072,-4.05031 8.34607,-6.11229 13.80785,-6.11229c5.4004,0 10.12576,2.06198 13.80785,6.03864c3.49799,4.05031 5.27767,9.05796 5.27767,14.72839c0,4.19759 -1.3501,8.54247 -3.00705,11.78271z"/></g></g></svg>