{
    "asset" : {
        "generator" : "Khronos glTF Blender I/O v3.4.50",
        "version" : "2.0"
    },
    "scene" : 0,
    "scenes" : [
        {
            "name" : "Scene",
            "nodes" : [
                0
            ]
        }
    ],
    "nodes" : [
        {
            "mesh" : 0,
            "name" : "tree_02 LP Faceted 03",
            "rotation" : [
                0.6910345554351807,
                0.14990434050559998,
                -0.1499042958021164,
                0.6910344362258911
            ],
            "scale" : [
                2.9775893688201904,
                2.9775893688201904,
                2.9775893688201904
            ],
            "translation" : [
                0.22641754150390625,
                0,
                0
            ]
        }
    ],
    "materials" : [
        {
            "doubleSided" : true,
            "name" : "Material.001",
            "pbrMetallicRoughness" : {
                "baseColorTexture" : {
                    "index" : 0
                },
                "metallicFactor" : 0,
                "roughnessFactor" : 0.5
            }
        }
    ],
    "meshes" : [
        {
            "name" : "tree_02 LP Faceted 03",
            "primitives" : [
                {
                    "attributes" : {
                        "POSITION" : 0,
                        "TEXCOORD_0" : 1,
                        "NORMAL" : 2
                    },
                    "indices" : 3,
                    "material" : 0
                }
            ]
        }
    ],
    "textures" : [
        {
            "sampler" : 0,
            "source" : 0
        }
    ],
    "images" : [
        {
            "bufferView" : 4,
            "mimeType" : "image/png",
            "name" : "sdate-0001"
        }
    ],
    "accessors" : [
        {
            "bufferView" : 0,
            "componentType" : 5126,
            "count" : 811,
            "max" : [
                1.4294129610061646,
                1.3019829988479614,
                1.2710699593299069e-05
            ],
            "min" : [
                -1.8829070329666138,
                -1.1193979978561401,
                -4.334938049316406
            ],
            "type" : "VEC3"
        },
        {
            "bufferView" : 1,
            "componentType" : 5126,
            "count" : 811,
            "type" : "VEC2"
        },
        {
            "bufferView" : 2,
            "componentType" : 5126,
            "count" : 811,
            "type" : "VEC3"
        },
        {
            "bufferView" : 3,
            "componentType" : 5123,
            "count" : 1041,
            "type" : "SCALAR"
        }
    ],
    "bufferViews" : [
        {
            "buffer" : 0,
            "byteLength" : 9732,
            "byteOffset" : 0,
            "target" : 34962
        },
        {
            "buffer" : 0,
            "byteLength" : 6488,
            "byteOffset" : 9732,
            "target" : 34962
        },
        {
            "buffer" : 0,
            "byteLength" : 9732,
            "byteOffset" : 16220,
            "target" : 34962
        },
        {
            "buffer" : 0,
            "byteLength" : 2082,
            "byteOffset" : 25952,
            "target" : 34963
        },
        {
            "buffer" : 0,
            "byteLength" : 366436,
            "byteOffset" : 28036
        }
    ],
    "samplers" : [
        {
            "magFilter" : 9728,
            "minFilter" : 9984
        }
    ],
    "buffers" : [
        {
            "byteLength" : 394472,
            "uri" : "data:application/octet-stream;base64,"
        }
    ]
}
